<?xml version="1.0" encoding="UTF-8" standalone="no"?>
<!-- Created with Inkscape (http://www.inkscape.org/) -->

<svg
   xmlns:dc="http://purl.org/dc/elements/1.1/"
   xmlns:cc="http://creativecommons.org/ns#"
   xmlns:rdf="http://www.w3.org/1999/02/22-rdf-syntax-ns#"
   xmlns:svg="http://www.w3.org/2000/svg"
   xmlns="http://www.w3.org/2000/svg"
   xmlns:xlink="http://www.w3.org/1999/xlink"
   xmlns:sodipodi="http://sodipodi.sourceforge.net/DTD/sodipodi-0.dtd"
   xmlns:inkscape="http://www.inkscape.org/namespaces/inkscape"
   width="106.385cm"
   height="22.752001cm"
   viewBox="0 0 1063.85 227.52001"
   version="1.1"
   id="svg876"
   inkscape:version="0.92.4 (5da689c313, 2019-01-14)"
   sodipodi:docname="ucas_logo.svg">
  <defs
     id="defs870">
    <clipPath
       id="clipPath1439"
       clipPathUnits="userSpaceOnUse">
      <path
         style="clip-rule:evenodd"
         inkscape:connector-curvature="0"
         id="path1437"
         d="m 1210.302,15.5369 c 5.299,5.35944 13.248,2.67972 13.248,-5.35944 0,-3.572957 1.767,-4.466196 4.417,-1.786478 0.883,1.786478 3.533,5.359438 5.299,9.825638 l 2.65,7.14591 -9.716,21.43775 c -12.365,27.69043 -14.132,32.15663 -16.781,34.83634 -1.767,0.89324 -2.65,2.67972 -2.65,2.67972 0,0.89324 4.416,0.89324 15.015,0.89324 11.482,0 15.015,0 15.015,-0.89324 0,-0.89324 -1.766,-1.78648 -2.65,-1.78648 -4.416,-0.89324 -3.533,-2.67971 5.3,-24.11746 4.416,-10.71888 4.416,-10.71888 5.299,-8.03916 0.883,1.78648 3.533,7.14592 5.3,13.39859 4.416,11.61212 5.299,16.07832 2.649,17.86479 -0.883,0.89324 -2.649,0.89324 -3.533,0.89324 -0.883,0 -0.883,0.89324 -0.883,1.78648 0,0.89324 0.883,0.89324 9.716,0.89324 7.066,0 9.716,0 9.716,-0.89324 0,0 -1.767,-1.78648 -2.65,-1.78648 -3.533,-0.89324 -4.416,-2.67971 -17.665,-37.51606 -11.482,-32.15662 -15.898,-40.195776 -19.431,-42.875494 -2.65,-1.7864796 -10.599,-2.6797191 -13.249,-1.7864796 -5.299,2.6797186 -7.949,11.6121136 -4.416,15.1850736 z M 2342.619,4.818024 c -1.767,2.679719 -1.767,8.932396 0,10.718876 4.416,5.35944 13.248,2.67972 13.248,-4.4662 0,-3.572957 0.884,-5.359436 3.533,-3.572957 1.767,0.893239 4.417,6.252677 7.066,13.398597 l 1.767,4.46619 -11.482,25.01071 c -11.482,26.79719 -13.249,30.37015 -15.899,32.15662 -0.883,0 -1.766,0.89324 -1.766,1.78648 0,0.89324 2.65,0.89324 15.015,0.89324 13.249,0 15.898,0 15.898,-0.89324 0,-0.89324 -0.883,-1.78648 -1.766,-1.78648 -3.533,0 -4.416,-1.78647 -3.533,-5.35943 0.883,-3.57296 11.482,-28.58367 11.482,-28.58367 0.883,0 9.716,24.11747 10.599,27.69043 0,2.67972 0,3.57296 -0.883,4.4662 -1.767,1.78647 -2.65,1.78647 -3.533,1.78647 -1.767,0 -1.767,0.89324 -1.767,1.78648 0,0.89324 0.884,0.89324 9.716,0.89324 7.066,0 9.716,0 9.716,-0.89324 0,-0.89324 -1.767,-1.78648 -2.65,-1.78648 -2.65,-0.89324 -4.416,-3.57295 -16.782,-36.62282 -12.365,-32.15662 -15.898,-41.089016 -20.314,-43.768734 -3.533,-2.6797191 -10.599,-2.6797191 -14.132,-0.89324 -1.767,0.89324 -3.533,2.679719 -3.533,3.572958 z M 739.5335,26.25577 c -6.1827,2.67972 -12.3654,7.14592 -15.8984,13.3986 -1.7665,3.57295 -1.7665,5.35943 -1.7665,34.83634 -0.8832,34.83639 -0.8832,33.94309 -7.9492,34.83639 -8.8324,1.7864 -2.6497,1.7864 17.6649,1.7864 h 22.081 c 0,-0.8932 -2.6497,-0.8932 -4.4162,-1.7864 -2.6497,0 -5.2994,-0.8933 -6.1827,-1.7865 -1.7665,-1.7865 -1.7665,-3.573 -1.7665,-26.79721 -0.8832,-27.69043 0,-38.4093 2.6498,-41.98226 5.2994,-7.14592 17.6648,-8.9324 25.614,-3.57296 8.8324,5.35944 10.5989,15.18507 9.7157,48.23493 0,21.4378 -0.8833,24.1175 -6.1827,25.0107 -1.7665,0.8933 -4.4162,0.8933 -4.4162,0.8933 -0.8833,0 -0.8833,0.8932 -0.8833,0.8932 0,0.8932 5.2995,0.8932 14.1319,0.8932 8.8324,0 15.0151,0 15.0151,-0.8932 0,0 -0.8832,-0.8932 -1.7665,-0.8932 -3.5329,0 -7.9491,-1.7865 -8.8324,-4.4662 -1.7665,-2.6798 -1.7665,-6.25272 -2.6497,-31.26343 0,-32.15662 0,-33.9431 -7.0659,-40.19578 -7.066,-6.25268 -10.599,-7.14592 -22.9644,-7.14592 z m 167.8161,56.27409 c -0.8833,0 -1.7665,0.89324 -1.7665,1.78648 0,0.89324 2.6497,0.89324 15.0151,0.89324 12.3654,0 15.0151,0 15.0151,-0.89324 0,-0.89324 -0.8832,-1.78648 -1.7665,-1.78648 -2.6497,0 -4.4162,-2.67971 -3.5329,-4.46619 C 931.1971,74.49071 941.796,49.48 942.6793,49.48 c 0.8832,0 10.5989,25.90395 10.5989,28.58367 0,3.57295 -1.7665,4.46619 -4.4162,4.46619 -1.7665,0 -1.7665,0.89324 -1.7665,1.78648 0,0.89324 0.8832,0.89324 9.7157,0.89324 7.9491,0 9.7156,0 9.7156,-0.89324 0,-0.89324 -0.8832,-1.78648 -1.7665,-1.78648 -2.6497,0 -5.2994,-3.57295 -15.8983,-29.4769 -8.8325,-20.54451 -12.3654,-26.79719 -13.2487,-26.79719 -1.7665,-0.89324 -3.5329,2.67972 -9.7156,18.75803 -13.2487,29.47691 -15.8984,35.72959 -18.5481,37.51606 z m 64.4767,-33.9431 c -2.6498,21.43775 8.8324,38.4093 26.4973,38.4093 5.2994,0 12.3654,-3.57296 15.8984,-8.93239 3.533,-4.4662 4.416,-8.03916 5.299,-15.18508 l 0.884,-4.46619 h -15.899 -16.7814 l 0.8833,-3.57296 c 2.6497,-17.86479 15.8981,-25.01071 26.4971,-13.39859 3.533,3.57295 5.3,3.57295 3.533,-0.89324 -2.65,-5.35944 -7.949,-10.71888 -12.365,-12.50536 -6.183,-2.67972 -14.1321,-2.67972 -20.3148,0 -7.9492,3.57296 -12.3654,10.71888 -14.1319,20.54451 z m 30.0307,31.26339 c -1.767,2.67971 -5.2999,3.57295 -7.9497,2.67971 -2.6497,-1.78647 -5.2994,-9.82563 -5.2994,-16.07831 v -4.4662 h 7.9492 c 6.1829,0 7.9489,0.89324 7.9489,1.78648 0.883,2.67972 -0.883,14.29184 -2.649,16.07832 z m 83.024,-35.72959 c -0.883,4.4662 1.767,4.4662 3.533,0 0.884,-5.35943 8.833,-12.50535 13.249,-13.39859 4.416,-0.89324 7.949,1.78648 7.949,5.35944 0.883,3.57296 -2.65,7.14591 -9.716,12.50535 -14.131,8.9324 -17.664,16.07831 -15.015,25.90395 2.65,10.71887 14.132,16.07831 24.731,11.61211 3.533,-1.78648 3.533,-1.78648 6.183,0 3.533,2.67972 4.416,1.78648 4.416,-4.4662 v -9.82563 c 0.883,-5.35944 -1.766,-5.35944 -4.416,0 -4.416,8.9324 -11.482,13.39859 -15.899,9.82563 -5.299,-3.57295 -3.533,-8.03915 7.066,-15.18507 7.066,-4.4662 14.132,-10.71887 15.016,-14.29183 3.532,-8.03916 0,-18.75803 -7.066,-23.22423 -4.417,-3.57296 -12.366,-3.57296 -19.432,-1.78648 -5.299,1.78648 -5.299,1.78648 -6.182,0 -3.533,-2.67972 -3.533,-1.78648 -4.417,6.25268 z m 222.577,-2.67971 c -2.649,4.46619 -2.649,6.25267 -2.649,14.29183 0,8.93239 0,9.82563 2.649,15.18507 5.3,10.71887 11.483,15.18507 21.198,16.07831 11.482,0.89324 21.198,-3.57296 26.498,-14.29183 2.649,-6.25268 2.649,-6.25268 2.649,-16.07831 0,-8.9324 0,-9.82564 -2.649,-16.07831 -3.533,-6.25268 -8.833,-11.61212 -14.132,-13.3986 -5.3,-1.78648 -15.015,-1.78648 -19.432,0 -5.299,1.78648 -10.599,8.03916 -14.132,14.29184 z m 32.68,16.97155 c 0,16.07831 -0.883,19.65127 -4.416,22.33099 -5.299,4.46619 -10.599,1.78647 -11.482,-6.25268 -1.766,-5.35944 -1.766,-29.47691 -0.883,-34.83634 1.766,-8.9324 8.832,-12.50536 13.248,-6.25268 2.65,2.67972 3.533,7.14592 3.533,25.01071 z m 101.573,2.67972 c -2.649,16.97155 5.3,35.72958 19.432,44.66198 13.248,8.9324 28.263,10.7189 44.162,4.4662 7.949,-2.6797 10.599,-2.6797 12.365,0.8932 0,1.7865 1.767,2.6797 1.767,2.6797 0.883,0 1.766,-2.6797 1.766,-14.29178 0,-12.50536 -0.883,-15.18508 -1.766,-15.18508 -0.884,0 -1.767,2.67972 -2.65,5.35944 -6.183,17.86482 -28.264,24.11742 -42.396,11.61212 -7.066,-7.14592 -9.715,-16.07832 -9.715,-31.26339 -0.884,-27.69042 11.482,-41.98226 31.796,-37.51606 7.066,0.89324 11.483,3.57296 17.665,8.9324 l 5.3,5.35943 v -4.46619 c 0,-3.57296 -0.884,-4.4662 -5.3,-7.14592 -2.649,-2.67972 -7.066,-5.35944 -9.715,-6.25268 -4.417,-2.67972 -6.183,-2.67972 -15.899,-2.67972 -7.066,0 -12.365,0 -15.898,0.89324 -15.899,4.4662 -27.381,16.97155 -30.914,33.94311 z M 1711.1,39.65437 c -3.533,7.14591 -4.416,19.65127 -1.766,27.69042 2.65,7.14592 7.949,14.29183 14.132,17.86479 4.416,1.78648 12.365,2.67972 16.781,1.78648 7.95,-2.67972 14.132,-12.50535 15.015,-22.33099 l 0.884,-6.25267 h -15.899 -15.015 v -2.67972 c 0,-4.4662 2.65,-12.50536 7.066,-16.07831 3.533,-3.57296 5.3,-4.4662 10.599,-4.4662 2.65,0.89324 7.066,3.57296 8.833,6.25268 0.883,1.78647 2.649,2.67971 2.649,2.67971 4.416,0.89324 -4.416,-12.50535 -11.482,-16.07831 -3.533,-1.78648 -15.015,-2.67972 -19.431,-0.89324 -4.416,1.78648 -9.716,7.14592 -12.366,12.50536 z m 30.031,28.58366 c 0,4.4662 -0.884,7.14592 -2.65,10.71888 -1.767,3.57295 -1.767,3.57295 -5.3,3.57295 -2.649,0 -3.533,0 -5.299,-2.67971 -1.767,-3.57296 -4.416,-15.18508 -3.533,-16.07832 0,-0.89324 3.533,-1.78648 8.832,-1.78648 h 7.95 z m 23.847,-30.37014 c 0,10.71887 0.883,11.61211 3.533,5.35943 3.533,-6.25267 10.599,-13.39859 15.015,-13.39859 3.533,0 7.066,3.57296 7.066,7.14592 0,3.57296 -1.766,5.35944 -10.599,11.61211 -8.832,7.14592 -11.482,8.9324 -14.132,13.39859 -2.649,6.25268 -0.883,16.97156 3.533,21.43775 5.3,4.4662 14.132,5.35944 20.315,2.67972 3.533,-1.78648 5.299,-1.78648 7.066,0 0.883,2.67972 3.533,1.78648 3.533,-1.78648 v -9.82563 c 0.883,-5.35944 0.883,-7.14592 -0.883,-7.14592 0,0 -1.767,1.78648 -2.65,3.57296 -1.767,5.35944 -7.066,9.82564 -11.482,11.61211 -2.65,0.89324 -3.533,0.89324 -5.3,-0.89324 -5.299,-3.57295 -3.533,-7.14591 5.3,-13.39859 10.599,-8.03915 14.132,-10.71887 15.898,-14.29183 1.767,-3.57296 2.65,-4.4662 1.767,-9.82564 0,-5.35943 -0.884,-7.14591 -2.65,-10.71887 -5.3,-7.14592 -13.249,-8.9324 -23.848,-6.25268 -5.299,1.78648 -5.299,1.78648 -7.066,0 -1.766,-1.78648 -2.649,-1.78648 -3.533,0 0,0 -0.883,5.35944 -0.883,10.71888 z m 50.345,4.4662 c -2.65,6.25267 -2.65,20.5445 0,26.79718 1.766,5.35944 7.949,13.39859 13.249,16.07831 4.416,1.78648 12.365,2.67972 16.781,1.78648 7.949,-2.67972 14.132,-12.50535 15.015,-22.33099 l 0.884,-6.25267 h -15.899 c -17.665,0 -16.781,0.89324 -14.132,-8.9324 1.767,-6.25268 7.066,-12.50535 12.366,-13.39859 4.416,-1.78648 8.832,0.89324 13.248,5.35944 1.767,2.67971 3.533,3.57295 3.533,2.67971 1.767,-1.78647 -5.299,-11.61211 -10.599,-15.18507 -3.533,-1.78648 -5.299,-2.67972 -10.598,-2.67972 -4.417,0 -8.833,0 -9.716,0.89324 -5.3,1.78648 -12.366,8.9324 -14.132,15.18508 z m 30.913,25.90394 c 0,9.82564 -2.649,14.29183 -7.949,14.29183 -3.533,0 -5.299,-0.89324 -7.066,-5.35943 -0.883,-3.57296 -2.649,-12.50536 -1.766,-14.29184 0,0 4.416,-0.89324 8.832,-0.89324 h 7.949 z m 145.736,-12.50535 c 0,18.75803 9.715,30.37014 25.614,31.26338 6.182,0.89324 7.949,0 11.482,-1.78648 8.832,-4.46619 11.482,-12.50535 7.066,-17.86479 -1.767,-2.67972 -7.95,-3.57296 -10.599,-0.89324 -1.767,1.78648 -3.533,7.14592 -3.533,10.71888 -0.883,2.67972 -2.65,5.35943 -5.3,5.35943 -2.649,0 -6.182,-3.57295 -7.066,-8.03915 -1.766,-6.25268 -0.883,-16.97155 0.884,-23.22423 4.416,-14.29183 14.131,-19.65127 23.847,-12.50535 3.533,2.67972 6.183,3.57296 6.183,2.67972 0,-1.78648 -3.533,-6.25268 -6.183,-8.9324 -5.299,-4.4662 -8.832,-6.25268 -15.898,-6.25268 -6.183,-0.89324 -7.949,0 -11.482,1.78648 -9.716,4.4662 -15.015,14.29184 -15.015,27.69043 z m 119.237,6.25267 c 0.884,3.57296 1.767,8.9324 2.65,10.71888 6.183,14.29183 22.964,19.65127 32.68,9.82563 l 2.65,-1.78647 v 12.50535 c 0,13.39856 -0.884,15.18506 -5.3,16.07836 -1.766,0 -2.649,0.8932 -2.649,0.8932 -0.884,0.8932 2.649,0.8932 12.365,0.8932 h 13.249 V 75.38395 36.08141 c 0.883,-1.78648 1.766,-2.67972 3.533,-2.67972 6.182,-0.89324 3.532,-2.67972 -8.833,-5.35944 -6.183,-0.89324 -11.482,-2.67972 -12.365,-2.67972 v 4.4662 4.4662 l -3.533,-3.57296 c -1.767,-1.78648 -4.416,-3.57296 -6.183,-3.57296 -3.533,-1.78648 -9.716,-1.78648 -13.249,0 -10.599,4.4662 -16.781,19.65127 -15.015,34.83634 z m 37.98,-21.43774 v 16.97155 c 0,14.29183 -0.884,16.07831 -2.65,18.75803 -3.533,5.35943 -9.716,6.25267 -12.365,2.67972 -3.533,-3.57296 -4.417,-9.82564 -4.417,-20.54451 0,-12.50536 0.884,-18.75803 5.3,-23.22423 2.65,-3.57296 6.183,-2.67972 10.599,1.78648 z m 35.329,-1.78648 c -2.649,6.25267 -2.649,6.25267 -2.649,16.97155 0,9.82563 0,11.61211 2.649,16.07831 7.066,16.07831 27.381,20.54451 37.98,8.9324 3.533,-4.4662 5.299,-9.82564 6.183,-16.07832 l 0.883,-6.25267 h -15.899 -15.898 l 0.883,-4.4662 c 0,-5.35944 4.417,-13.39859 7.949,-16.07831 2.65,-1.78648 4.417,-2.67972 7.95,-2.67972 3.533,0 4.416,0.89324 8.832,5.35944 5.3,5.35943 7.066,4.46619 3.533,-1.78648 -2.65,-5.35944 -8.832,-10.71888 -13.249,-11.61212 -4.416,-1.78648 -12.365,-1.78648 -16.781,0 -5.3,1.78648 -8.833,5.35944 -12.366,11.61212 z m 29.147,30.37014 c 0,8.9324 -2.649,13.39859 -6.182,13.39859 -1.767,0 -3.533,0 -4.416,-0.89324 -1.767,-1.78647 -4.417,-7.14591 -5.3,-12.50535 -0.883,-6.25268 -0.883,-7.14592 8.832,-7.14592 h 7.95 z m 223.461,-9.82563 c 0.883,10.71887 7.066,21.43775 15.015,25.90394 2.65,1.78648 5.299,1.78648 11.482,1.78648 7.066,0 8.833,0 12.365,-2.67972 6.183,-2.67972 8.833,-6.25267 11.483,-13.39859 2.649,-3.57296 2.649,-5.35944 2.649,-15.18507 0,-10.71888 -0.883,-15.18507 -7.066,-21.43775 -4.416,-5.35944 -9.715,-8.03916 -17.664,-8.03916 -4.417,0 -8.833,0 -10.599,0.89324 -11.482,3.57296 -18.548,16.97155 -17.665,32.15663 z m 33.563,-23.22423 c 1.767,3.57296 1.767,7.14591 1.767,20.54451 0,15.18507 0,16.97155 -1.767,20.54451 -3.533,7.14591 -9.716,7.14591 -13.249,0.89324 -1.766,-2.67972 -1.766,-4.4662 -1.766,-18.75803 -0.883,-8.9324 0,-17.86479 0,-19.65127 0.883,-7.14592 7.066,-11.61212 11.482,-8.9324 0.883,0.89324 2.65,3.57296 3.533,5.35944 z m 105.989,20.54451 c 0.883,0 1.767,-0.89324 1.767,-3.57296 4.416,-13.39859 15.015,-23.22423 26.497,-23.22423 13.249,0 19.431,12.50536 10.599,21.43775 -0.883,1.78648 -7.949,6.25268 -15.015,9.82564 -6.183,3.57295 -14.132,8.03915 -15.899,9.82563 -10.599,8.9324 -12.365,22.33099 -4.416,33.04985 7.949,9.8256 22.081,12.5054 36.213,6.2527 6.183,-2.6797 7.066,-2.6797 8.832,0.8932 2.65,5.3595 2.65,3.573 3.533,-8.0391 V 88.78254 c 0.884,-2.67972 0,-3.57296 -0.883,-3.57296 -0.883,0 -1.766,0.89324 -1.766,1.78648 -1.767,5.35944 -3.533,9.82564 -7.066,13.39864 -8.833,10.7188 -23.848,11.6121 -29.147,1.7864 -3.533,-7.14588 0,-12.50532 17.665,-21.43771 21.197,-10.71888 26.497,-16.97156 26.497,-29.47691 0,-10.71887 -6.183,-19.65127 -16.782,-23.22423 -7.066,-2.67972 -17.665,-2.67972 -25.614,0 -7.949,2.67972 -9.715,2.67972 -11.482,0 -4.416,-4.4662 -4.416,-3.57296 -4.416,13.3986 0,12.50535 0,15.18507 0.883,15.18507 z m 71.543,-16.97155 c -3.533,5.35943 -3.533,5.35943 -3.533,16.07831 0,9.82563 0,10.71887 2.65,15.18507 5.299,10.71887 12.365,15.18507 22.081,16.07831 7.949,0.89324 12.365,-0.89324 16.781,-5.35944 3.533,-3.57295 4.416,-4.46619 4.416,-8.03915 0,-6.25268 -2.649,-8.9324 -7.066,-8.9324 -5.299,0 -7.949,3.57296 -9.715,9.82564 -0.883,6.25268 -2.65,8.03915 -5.3,8.03915 -4.416,0 -7.066,-6.25267 -7.066,-16.97155 0,-24.11746 13.249,-36.62282 26.498,-25.0107 2.649,1.78648 3.533,1.78648 3.533,0.89324 0.883,-1.78648 -2.65,-6.25268 -6.183,-9.82564 -0.883,-0.89324 -3.533,-2.67972 -6.183,-3.57296 -5.299,-2.67972 -13.248,-2.67972 -18.548,-0.89324 -5.299,1.78648 -9.715,5.35944 -12.365,12.50536 z m 88.324,4.46619 c -2.65,8.03916 -1.766,20.54451 1.767,27.69043 3.533,8.9324 11.482,14.29183 21.197,15.18507 6.183,0.89324 9.716,-0.89324 15.015,-5.35944 4.417,-3.57295 7.95,-9.82563 7.95,-17.86479 l 0.883,-5.35943 h -15.898 -15.899 l 0.883,-4.4662 c 0.884,-10.71888 7.95,-18.75803 15.899,-18.75803 3.533,0 4.416,0.89324 8.832,5.35944 5.3,5.35943 7.066,4.46619 3.533,-1.78648 -2.65,-5.35944 -9.715,-10.71888 -13.248,-11.61212 -4.417,-1.78648 -12.366,-1.78648 -16.782,0 -6.183,2.67972 -11.482,8.9324 -14.132,16.97155 z m 30.914,25.01071 c 0,8.9324 -2.65,13.39859 -6.183,13.39859 -3.533,0.89324 -5.3,-0.89324 -7.949,-5.35943 -1.767,-3.57296 -2.65,-12.50536 -1.767,-13.3986 0,-0.89324 3.533,-1.78648 8.833,-1.78648 h 7.949 z m 94.507,-11.61211 c 0.883,16.97155 10.598,28.58366 24.73,29.4769 7.949,0.89324 12.366,-0.89324 16.782,-5.35944 3.533,-3.57295 4.416,-4.46619 4.416,-8.03915 0,-6.25268 -2.65,-8.9324 -7.066,-8.9324 -5.299,0 -7.949,3.57296 -9.715,9.82564 -0.884,6.25268 -2.65,8.03915 -5.3,8.03915 -8.832,0 -10.599,-25.0107 -2.65,-38.4093 4.417,-7.14591 11.482,-9.82563 17.665,-7.14591 1.767,0.89324 4.416,2.67972 5.3,3.57296 0.883,1.78648 1.766,1.78648 2.649,1.78648 2.65,-1.78648 -4.416,-9.82564 -11.482,-13.3986 -6.182,-3.57296 -13.248,-4.4662 -19.431,-1.78648 -10.599,3.57296 -16.782,15.18508 -15.898,30.37015 z m 58.294,-16.97155 c -2.65,4.46619 -2.65,6.25267 -2.65,15.18507 0,8.93239 0,10.71887 2.65,15.18507 3.532,8.9324 11.482,15.18507 19.431,16.07831 6.183,0.89324 9.716,0 14.132,-2.67972 7.066,-4.46619 9.715,-10.71887 11.482,-21.43775 l 0.883,-4.46619 h -16.781 -15.899 l 0.883,-3.57296 c 2.65,-17.86479 16.782,-25.01071 26.498,-13.39859 1.766,2.67971 3.533,3.57295 3.533,2.67971 1.766,-1.78647 -5.3,-11.61211 -10.599,-15.18507 -3.533,-1.78648 -5.3,-2.67972 -10.599,-2.67972 -6.183,-0.89324 -7.949,0 -11.482,1.78648 -5.3,2.67972 -8.833,5.35944 -11.482,12.50536 z m 27.38,39.30254 c -2.65,3.57295 -7.949,4.46619 -9.716,0.89324 -2.649,-3.57296 -3.533,-8.03916 -3.533,-13.3986 v -5.35944 h 7.066 c 4.417,0 8.833,0.89324 8.833,0.89324 0.883,1.78648 -0.883,15.18508 -2.65,16.97156 z m 27.381,-33.04987 c 0.883,0 1.766,-0.89324 2.649,-3.57296 4.417,-8.93239 12.366,-14.29183 17.665,-12.50535 6.183,2.67972 5.3,8.9324 -1.766,15.18507 -2.65,1.78648 -7.066,5.35944 -9.716,7.14592 -7.066,5.35944 -9.716,9.82563 -9.716,16.07831 0,14.29183 11.482,22.33099 24.731,16.97155 5.3,-1.78648 5.3,-1.78648 7.066,0 1.767,1.78648 2.65,1.78648 3.533,-3.57296 1.767,-13.39859 0,-18.75803 -3.533,-10.71887 -3.533,8.03916 -12.365,13.39859 -16.782,9.82563 -5.299,-3.57295 -3.533,-7.14591 5.3,-13.39859 C 3010.35,56.62592 3013,53.05296 3013,44.12056 c 0,-9.82563 -7.949,-18.75803 -18.548,-18.75803 -1.767,0 -6.183,0.89324 -8.833,1.78648 -5.299,1.78648 -6.182,1.78648 -7.065,0 -0.884,-0.89324 -1.767,-1.78648 -2.65,-1.78648 0,0 -0.883,2.67972 -0.883,4.4662 -0.884,6.25268 -0.884,16.97155 0,16.97155 z M 1173.206,36.97465 v 22.33099 19.65127 h -3.533 c -2.65,0 -3.533,0.89324 -3.533,1.78648 0,0 2.649,4.46619 7.066,8.03915 4.416,4.4662 9.715,9.82564 11.482,12.50536 1.766,3.573 4.416,5.3594 4.416,5.3594 0.883,0 1.766,-2.6797 1.766,-10.71884 V 85.20958 h 6.183 7.066 v -2.67972 -3.57295 h -7.066 -6.183 V 58.4124 c 0,-19.65127 0,-21.43775 0.884,-23.22423 2.649,-1.78648 4.416,-1.78648 7.949,1.78648 2.65,2.67972 3.533,3.57296 3.533,1.78648 0.883,-1.78648 -3.533,-8.03916 -7.949,-9.82564 -4.417,-2.67972 -10.599,-2.67972 -14.132,-0.89324 -3.533,1.78648 -6.183,4.4662 -7.949,8.9324 z m 877.943,8.93239 c 1.766,3.57296 7.066,8.03916 18.548,14.29184 l 9.716,4.46619 v 6.25268 c 0,5.35944 -0.884,7.14592 -2.65,8.9324 -1.767,2.67971 -2.65,2.67971 -6.183,2.67971 -5.299,0 -8.832,-2.67971 -7.066,-5.35943 2.65,-3.57296 3.533,-7.14592 3.533,-9.82564 -3.533,-8.03915 -16.781,-5.35944 -16.781,3.57296 0,7.14592 7.065,13.39859 16.781,15.18507 9.716,2.67972 17.665,1.78648 22.964,-2.67972 5.3,-4.46619 6.183,-6.25267 6.183,-27.69042 0.883,-10.71888 0.883,-20.54451 1.767,-20.54451 0,-0.89324 0.883,0 2.649,0 3.533,2.67972 4.417,0 0,-3.57296 -3.533,-4.4662 -6.182,-5.35944 -10.599,-5.35944 -5.299,0 -8.832,2.67972 -9.715,6.25268 l -1.767,2.67972 -2.649,-1.78648 c -7.066,-6.25268 -16.782,-8.03916 -22.081,-5.35944 -4.417,2.67972 -6.183,10.71888 -2.65,17.86479 z m 28.264,-5.35943 v 9.82563 c 0,10.71888 0,10.71888 -7.066,4.4662 -6.183,-5.35944 -7.95,-11.61212 -4.417,-15.18507 1.767,-2.67972 4.417,-2.67972 8.833,-0.89324 z M 804.0102,29.82873 c 5.2994,1.78648 5.2994,1.78648 5.2994,26.79719 0,21.43775 -0.8832,23.22423 -1.7665,24.11747 -1.7664,1.78647 -2.6497,1.78647 -3.5329,1.78647 -0.8833,0 -0.8833,0.89324 -0.8833,1.78648 0,0.89324 1.7665,0.89324 11.4822,0.89324 h 12.3654 v -2.67972 -3.57295 l 3.533,3.57295 c 5.2994,3.57296 9.7156,5.35944 15.0151,4.4662 5.2994,0 7.9492,-2.67972 10.5989,-8.03915 1.7665,-3.57296 2.6497,-4.4662 2.6497,-21.43775 0,-22.33099 0,-25.90395 3.533,-26.79719 0.8832,-0.89324 2.6497,-1.78648 2.6497,-2.67972 0,0 -6.1827,-0.89324 -15.0151,-0.89324 -14.1319,0 -17.6649,0.89324 -12.3654,3.57296 0.8832,0 2.6497,1.78648 3.533,2.67972 0.8832,2.67972 0.8832,38.4093 0,41.08902 -1.7665,5.35944 -7.9492,5.35944 -12.3654,0 -1.7665,-2.67972 -1.7665,-2.67972 -1.7665,-22.33099 V 32.50845 c 0.8832,-0.89324 1.7665,-1.78648 2.6497,-1.78648 4.4162,-2.67972 1.7665,-3.57296 -12.3654,-3.57296 -9.7157,0 -14.1319,0.89324 -14.1319,1.78648 0,0 0,0.89324 0.8833,0.89324 z m 68.8929,0 c 4.4162,1.78648 5.2995,1.78648 5.2995,26.79719 0,21.43775 -0.8833,23.22423 -1.7665,25.0107 -0.8833,0.89324 -2.6498,0.89324 -3.533,0.89324 -0.8832,0 -0.8832,0.89324 -0.8832,1.78648 0,0.89324 1.7664,0.89324 11.4821,0.89324 h 12.3654 V 61.09212 33.40169 c 0.8833,-1.78648 2.6497,-2.67972 3.533,-3.57296 6.1827,-1.78648 2.6497,-2.67972 -12.3654,-2.67972 -8.8324,0 -15.0151,0.89324 -15.0151,0.89324 0,0.89324 0,1.78648 0.8832,1.78648 z m 157.2169,0.89324 c 1.767,0.89324 2.65,1.78648 3.533,3.57296 0.884,4.4662 0.884,41.98226 -0.883,44.66198 0,2.67971 -1.766,3.57295 -3.533,3.57295 -0.883,0 -1.766,0.89324 -1.766,1.78648 0,0.89324 1.766,0.89324 11.482,0.89324 h 12.365 v -6.25267 c 0,-6.25268 0,-6.25268 0.883,-4.4662 7.066,11.61211 17.665,16.07831 22.081,10.71887 2.65,-1.78648 2.65,-3.57296 2.65,-8.03915 -0.883,-6.25268 -7.949,-8.9324 -12.365,-4.4662 -3.533,2.67972 -6.183,2.67972 -8.833,-0.89324 -3.533,-3.57296 -4.416,-8.03916 -4.416,-23.22423 -0.883,-15.18507 0,-16.97155 4.416,-18.75803 6.183,-1.78648 2.65,-2.67972 -12.365,-2.67972 -8.832,0 -15.898,0.89324 -15.898,0.89324 0,0.89324 0.883,1.78648 2.649,2.67972 z m 102.456,-0.89324 c 4.417,0.89324 5.3,2.67972 5.3,26.79719 0,21.43775 -0.883,23.22423 -1.767,24.11747 -1.766,1.78647 -2.649,1.78647 -3.533,1.78647 -1.766,0 -1.766,0.89324 -1.766,1.78648 0,0.89324 1.766,0.89324 12.365,0.89324 h 12.366 V 60.19888 32.50845 c 0,-0.89324 1.766,-1.78648 3.533,-2.67972 6.182,-1.78648 2.649,-2.67972 -12.366,-2.67972 -10.599,0 -15.898,0.89324 -15.898,0.89324 0,0.89324 0.883,1.78648 1.766,1.78648 z m 237.593,0 c 5.299,0.89324 5.299,0.89324 5.299,26.79719 v 22.33099 h -4.416 c -3.533,0 -3.533,0.89324 -3.533,3.57295 0,2.67972 0,2.67972 3.533,2.67972 h 3.533 l 0.883,7.14592 c 0.883,14.2918 8.833,21.4377 22.964,21.4377 10.599,0 15.899,-2.6797 15.899,-9.8256 0,-3.5729 -3.533,-6.25266 -8.833,-6.25266 -4.416,0 -7.066,2.67976 -6.182,6.25266 0.883,4.4662 0,5.3595 -2.65,5.3595 -3.533,0 -3.533,-0.8933 -3.533,-12.5054 V 85.20958 h 3.533 c 3.533,0 4.416,0 4.416,-2.67972 0,-2.67971 -0.883,-3.57295 -4.416,-3.57295 h -3.533 V 56.62592 c 0,-25.90395 -0.883,-25.90395 4.416,-26.79719 7.066,-1.78648 1.767,-2.67972 -13.248,-2.67972 -9.716,0 -16.782,0.89324 -16.782,0.89324 0,0.89324 0.883,1.78648 2.65,1.78648 z m 164.283,0.89324 c 1.766,0 2.65,1.78648 3.533,2.67972 v 35.72958 35.72963 c -0.883,1.7864 -1.767,3.5729 -3.533,3.5729 -4.416,2.6797 -2.65,2.6797 9.716,2.6797 h 11.482 V 95.03522 78.95691 c 0.883,0 1.766,0.89324 2.649,2.67971 2.65,2.67972 9.716,5.35944 14.132,5.35944 7.066,0.89324 12.366,-4.4662 14.132,-10.71887 0.883,-1.78648 0.883,-11.61212 0.883,-22.33099 0,-9.82564 0.884,-19.65127 0.884,-20.54451 0.883,-0.89324 2.649,-2.67972 3.533,-2.67972 5.299,-2.67972 1.766,-3.57296 -12.366,-3.57296 -14.132,0 -16.781,0.89324 -12.365,3.57296 0.883,0 2.65,1.78648 2.65,2.67972 0.883,3.57296 0.883,38.4093 0,41.98226 -0.884,5.35944 -7.066,4.4662 -12.366,-1.78648 l -1.766,-2.67972 V 53.9462 33.40169 c 0.883,-0.89324 1.766,-2.67972 3.533,-2.67972 0.883,-0.89324 2.649,-1.78648 2.649,-2.67972 0,0 -6.182,-0.89324 -15.015,-0.89324 -8.832,0 -14.132,0.89324 -14.132,0.89324 0,0.89324 0.884,1.78648 1.767,2.67972 z m 68.01,-0.89324 c 4.416,0.89324 5.299,2.67972 5.299,25.90395 0,12.50535 -0.883,23.22423 -0.883,24.11747 -0.884,1.78647 -1.767,2.67971 -3.533,2.67971 -1.767,0 -2.65,0.89324 -2.65,1.78648 0,0.89324 1.767,0.89324 12.365,0.89324 h 12.366 V 60.19888 32.50845 c 0,-0.89324 1.766,-1.78648 3.533,-2.67972 6.182,-1.78648 2.65,-2.67972 -12.366,-2.67972 -10.599,0 -15.898,0.89324 -15.898,0.89324 0,0.89324 0.883,1.78648 1.767,1.78648 z m 37.096,0 c 0.883,0.89324 2.649,1.78648 2.649,2.67972 1.767,2.67972 1.767,43.76874 0.884,47.3417 -0.884,0.89324 -2.65,2.67971 -3.533,2.67971 -0.884,0 -1.767,0.89324 -1.767,1.78648 0,0.89324 1.767,0.89324 11.482,0.89324 h 11.483 v -2.67972 -3.57295 c 0,0 1.766,1.78648 3.533,2.67971 8.832,8.03916 20.314,7.14592 25.614,-0.89323 2.649,-3.57296 2.649,-3.57296 3.533,-25.01071 0,-12.50536 0,-23.22423 0.883,-23.22423 0,-0.89324 1.766,-1.78648 2.649,-2.67972 5.3,-1.78648 1.767,-2.67972 -12.365,-2.67972 -8.832,0 -14.132,0.89324 -14.132,0.89324 0,0.89324 0.883,1.78648 1.767,2.67972 3.533,1.78648 4.416,5.35944 3.533,25.90395 0,18.75803 -0.884,21.43775 -3.533,22.33099 -2.65,0.89324 -7.949,-1.78648 -9.716,-6.25268 -2.65,-2.67972 -2.65,-2.67972 -1.766,-20.54451 0,-9.82563 0.883,-18.75803 0.883,-19.65127 0,-0.89324 1.766,-1.78648 2.65,-2.67972 5.299,-1.78648 1.766,-2.67972 -12.366,-2.67972 -9.716,0 -14.132,0.89324 -14.132,1.78648 0,0 0.883,0.89324 1.767,0.89324 z m 260.556,0.89324 c 1.767,0.89324 4.416,2.67972 6.183,5.35944 0.883,2.67972 9.716,20.54451 18.548,40.19578 8.833,20.54451 15.898,36.62281 16.782,36.62281 0.883,0 7.949,-16.0783 16.781,-35.72957 17.665,-41.08902 20.315,-45.55522 23.848,-46.44846 1.766,0 3.533,-0.89324 3.533,-1.78648 0,-0.89324 -4.416,-1.78648 -20.315,-1.78648 -19.431,0 -25.614,0.89324 -16.781,2.67972 7.066,0.89324 7.066,3.57296 2.649,14.29183 l -3.533,7.14592 h -14.131 -14.132 l -2.65,-4.4662 c -5.3,-11.61211 -3.533,-16.07831 4.416,-16.97155 1.767,0 2.65,-0.89324 2.65,-0.89324 0.883,-0.89324 -2.65,-1.78648 -13.249,-1.78648 -10.599,0 -13.248,0.89324 -13.248,1.78648 0,0.89324 0.883,1.78648 2.649,1.78648 z m 34.447,52.70113 c -0.883,0 -13.249,-25.0107 -13.249,-26.79718 0.883,-0.89324 24.731,-0.89324 24.731,0 0,0.89324 -11.482,25.90394 -11.482,26.79718 z m 304.718,-53.59437 c 0.884,0.89324 2.65,1.78648 2.65,2.67972 1.767,2.67972 1.767,43.76874 0.883,47.3417 -0.883,0.89324 -2.649,2.67971 -3.533,2.67971 -0.883,0 -1.766,0.89324 -1.766,1.78648 0,0.89324 1.766,0.89324 11.482,0.89324 h 12.366 v -2.67972 -3.57295 l 2.649,2.67971 c 7.066,5.35944 15.015,7.14592 21.198,4.4662 2.65,-0.89324 7.066,-5.35943 7.949,-8.03915 0,-0.89324 1.767,0 3.533,2.67972 9.716,8.93239 23.848,8.93239 29.147,-0.89324 1.767,-3.57296 1.767,-5.35944 2.65,-25.01071 0,-11.61212 0,-22.33099 0.883,-22.33099 0,-0.89324 1.767,-1.78648 2.65,-2.67972 5.299,-1.78648 1.766,-2.67972 -12.365,-2.67972 -8.833,0 -15.016,0.89324 -15.016,0.89324 0,0.89324 0.884,1.78648 2.65,2.67972 1.767,1.78648 2.65,2.67972 3.533,7.14592 0.883,6.25267 0,36.62282 -0.883,38.4093 -2.65,4.4662 -7.066,3.57296 -12.366,-1.78648 l -2.649,-2.67972 V 53.05296 c 0,-19.65127 0,-19.65127 1.766,-21.43775 l 2.65,-2.67972 c 0.883,0 1.766,0 1.766,-0.89324 0,0 -6.182,-0.89324 -15.015,-0.89324 -8.832,0 -15.015,0.89324 -15.015,0.89324 0,0.89324 0.883,1.78648 2.65,2.67972 l 2.65,1.78648 v 20.54451 c 0,17.86479 0,21.43775 -0.884,23.22423 -1.766,3.57296 -5.299,3.57296 -8.832,1.78648 -5.299,-3.57296 -5.299,-4.4662 -5.299,-25.90395 0,-20.54451 0,-20.54451 4.416,-22.33099 4.416,-1.78648 0,-2.67972 -13.249,-2.67972 -9.716,0 -15.015,0.89324 -15.015,1.78648 0,0 0.883,0.89324 1.766,0.89324 z m 263.207,0 c 5.299,0.89324 5.299,0.89324 5.299,26.79719 v 22.33099 h -4.416 c -3.533,0 -3.533,0.89324 -3.533,3.57295 0,2.67972 0,2.67972 3.533,2.67972 h 3.533 l 0.883,7.14592 c 0.883,10.7189 4.416,16.0783 13.249,19.6513 4.416,1.7864 15.898,1.7864 20.314,0 7.066,-3.573 7.066,-10.7189 0.884,-13.39862 -6.183,-2.67972 -12.366,0.89324 -10.599,6.25272 0.883,2.6797 0,4.4662 -2.65,4.4662 -3.533,0 -3.533,-0.8933 -3.533,-12.5054 V 85.20958 h 3.533 c 3.533,0 4.416,0 4.416,-2.67972 0,-2.67971 -0.883,-3.57295 -4.416,-3.57295 h -3.533 V 56.62592 c 0,-25.01071 0,-25.90395 5.3,-26.79719 6.182,-1.78648 0.883,-2.67972 -14.132,-2.67972 -9.716,0 -16.782,0.89324 -16.782,0.89324 0,0.89324 0.883,1.78648 2.65,1.78648 z m 196.963,0 c 4.416,1.78648 5.299,1.78648 5.299,25.90395 0,19.65127 -0.883,23.22423 -1.766,25.01071 -0.883,0.89323 -1.767,1.78647 -3.533,1.78647 -0.883,0 -0.883,0.89324 -0.883,1.78648 0,0.89324 1.766,0.89324 11.482,0.89324 h 12.365 v -25.0107 c 0,-27.69043 0,-29.47691 4.416,-30.37015 0.884,0 2.65,-0.89324 2.65,-1.78648 0,0 -6.183,-0.89324 -15.898,-0.89324 -8.833,0 -15.015,0.89324 -15.015,0.89324 0,0.89324 0,1.78648 0.883,1.78648 z m 93.624,0.89324 c 1.766,0 2.649,1.78648 3.533,2.67972 0,3.57296 0.883,40.19578 0,44.66198 -0.884,2.67972 -0.884,3.57295 -3.533,4.46619 -0.884,0 -1.767,1.78648 -1.767,1.78648 0,0.89324 2.65,0.89324 11.482,0.89324 h 11.482 v -2.67972 c 0,-3.57295 0,-3.57295 2.65,-0.89324 2.65,2.67972 9.716,5.35944 14.132,5.35944 5.299,0.89324 10.599,-2.67972 13.249,-7.14591 1.766,-3.57296 1.766,-4.4662 2.649,-25.01071 0,-11.61212 0,-22.33099 0.884,-22.33099 0,-0.89324 1.766,-1.78648 2.649,-2.67972 5.3,-1.78648 1.767,-2.67972 -12.365,-2.67972 -7.949,0 -14.132,0.89324 -14.132,0.89324 0,0.89324 0.883,1.78648 2.65,2.67972 l 2.65,2.67972 V 53.9462 75.38395 l -2.65,1.78648 c -3.533,2.67972 -5.3,1.78648 -9.716,-2.67972 l -2.65,-2.67972 V 53.9462 33.40169 c 0.884,-0.89324 1.767,-2.67972 3.533,-2.67972 0.884,-0.89324 2.65,-1.78648 2.65,-2.67972 0,0 -6.183,-0.89324 -15.015,-0.89324 -8.832,0 -14.132,0.89324 -14.132,0.89324 0,0.89324 0.883,1.78648 1.767,2.67972 z M 879.969,110.2203 c 5.2995,6.2527 16.7817,2.6797 16.7817,-5.3594 0,-6.25272 -4.4163,-10.71892 -10.599,-10.71892 -2.6497,0 -3.5329,0.89324 -6.1827,2.67972 -3.5329,3.573 -3.5329,9.8256 0,13.3986 z m 269.389,2.6797 c 9.716,-2.6797 7.066,-18.75802 -2.65,-18.75802 -2.649,0 -4.416,0.89324 -7.066,2.67972 -7.066,7.1459 -0.883,19.6513 9.716,16.0783 z m 458.403,-3.5729 c 4.416,6.2526 15.015,5.3594 17.665,-1.7865 1.766,-6.2527 -2.65,-13.39862 -9.716,-13.39862 -2.65,0 -3.533,0.89324 -6.183,3.57296 -3.533,3.57296 -4.416,7.14596 -1.766,11.61216 z m 1096.104,-2.6798 c 0.883,2.6798 4.416,6.2527 7.066,7.1459 6.183,0.8933 12.365,-3.5729 12.365,-9.8256 0,-7.1459 -9.715,-12.50534 -15.898,-7.1459 -2.65,1.78648 -4.416,6.2527 -3.533,9.8256 z" />
    </clipPath>
    <clipPath
       id="clipPath1449"
       clipPathUnits="userSpaceOnUse">
      <path
         style="clip-rule:evenodd"
         inkscape:connector-curvature="0"
         id="path1447"
         d="m 41.64076,184.5414 c -21.492,37.6064 -35.461808,76.2872 -40.8348097,119.266 -1.0746004,15.0425 -1.0746004,56.9468 0,70.9149 6.4476017,45.1276 20.4174097,88.1063 44.0586097,124.6383 22.56661,37.6063 60.17764,75.2127 96.71404,97.7766 85.968,51.5744 190.2043,59.0957 281.5453,20.4148 35.4618,-15.0425 64.476,-35.4574 93.4902,-63.3936 24.7158,-25.7872 40.8348,-48.351 56.9538,-80.5851 16.119,-31.1596 24.7158,-63.3936 30.0888,-98.851 2.1493,-16.1171 1.0746,-56.9468 -1.0746,-74.1383 -9.6714,-67.6915 -38.6856,-127.8617 -85.968,-175.1383 -48.357,-48.3511 -111.7584,-79.51067 -180.5328,-87.03195 -17.1936,-2.14894 -52.6555,-2.14894 -68.7745,0 C 172.742,50.2329 89.99778,103.9563 41.64076,184.5414 Z M 388.7367,53.4563 c 105.3108,32.23405 184.8312,119.266 206.3232,226.7128 4.2984,23.6383 5.373,32.234 5.373,60.1702 0,30.0851 -2.1492,45.1276 -7.5222,69.8404 -20.4174,80.5851 -71.9982,148.2766 -143.9964,189.1064 -61.2522,35.4574 -137.5488,46.2021 -208.4725,32.234 C 136.2056,610.0308 51.31217,533.7435 17.99956,433.818 9.402753,404.8074 5.104352,380.0946 4.029751,347.8606 c -2.1492,-50.5 7.522199,-94.5532 30.088809,-140.7554 25.79041,-50.5 64.47602,-93.4787 113.90764,-123.56379 54.8046,-33.30851 118.206,-47.2766 184.8313,-40.82979 15.0444,1.07447 39.7602,5.37234 55.8792,10.74468 z M 11.55195,310.2542 c -1.0746,16.117 0,58.0213 2.1492,73.0638 5.37301,31.1596 13.96981,58.0213 26.86501,84.883 35.46182,73.0638 97.78864,125.7127 175.15984,150.4255 51.5808,16.117 113.9077,17.1915 166.5631,1.0745 48.357,-12.8936 89.1918,-37.6064 125.7282,-74.1383 55.8792,-55.8724 85.968,-126.7872 85.968,-205.2234 0,-75.2128 -26.865,-142.9043 -77.3712,-198.7766 C 480.0777,100.7329 425.2731,68.49886 370.4685,55.60524 345.7527,50.2329 307.0671,47.00949 283.4258,48.08396 140.504,57.75417 26.59636,168.4244 11.55195,310.2542 Z M 293.0972,84.61588 v 12.89361 l 4.2984,-13.96808 4.2984,-13.96809 4.2985,15.04256 4.2984,13.96808 V 85.69035 c 1.0746,-10.74469 0,-12.89362 -1.0746,-13.96809 -2.1492,-1.07447 -1.0746,-2.14894 4.2984,-2.14894 5.373,0 6.4476,1.07447 4.2984,2.14894 -1.0746,1.07447 -2.1492,3.2234 -1.0746,15.04255 0,12.89362 0,13.96809 2.1492,13.96809 2.1492,1.0745 3.2238,-1.07447 7.5222,-8.59575 5.373,-9.67021 6.4476,-17.19149 3.2238,-19.34042 -1.0746,-2.14894 -1.0746,-2.14894 2.1492,-1.07447 h 5.373 c 3.2238,0 4.2984,1.07447 2.1492,2.14894 -3.2238,2.14893 -3.2238,11.81915 0,20.41489 1.0746,5.37234 2.1492,9.67021 3.2238,9.67021 1.0746,1.0745 0,1.0745 -2.1492,1.0745 -2.1492,0 -3.2238,0 -3.2238,-1.0745 0,0 0,-1.0745 1.0746,-1.0745 1.0746,0 0,-6.44677 -2.1492,-11.81911 l -1.0746,-3.22341 -3.2238,6.44681 c -2.1492,4.29787 -3.2238,7.52131 -3.2238,8.59571 0,1.0745 -1.0746,1.0745 -8.5968,0 l -9.6714,-1.0744 -2.1492,-5.37237 c -1.0746,-3.22341 -2.1492,-8.59575 -3.2238,-10.74468 l -1.0746,-4.29788 -3.2239,10.74468 -3.2238,9.67025 h -5.373 -3.2238 c 1.0746,-1.0745 2.1492,-4.29791 2.1492,-16.11705 0,-10.74469 -1.0746,-13.96809 -2.1492,-15.04256 h 3.2238 c 3.2238,0 4.2984,0 2.1492,1.07447 -1.0746,0 -1.0746,2.14894 -1.0746,12.89362 z m -10.746,-6.44681 c -2.1492,-4.29787 -6.4476,-5.37234 -9.6714,-4.29787 -1.0746,0 -2.1492,2.14893 -1.0746,6.4468 0,3.22341 1.0746,6.44681 1.0746,6.44681 1.0746,1.07447 4.2984,-2.14893 4.2984,-4.29787 0,-4.29787 1.0746,5.37234 1.0746,9.67021 v 2.14894 c -1.0746,-3.2234 -2.1492,-5.37234 -4.2984,-5.37234 -1.0746,0 -1.0746,11.81915 1.0746,12.89365 h 3.2238 c 2.1492,-1.0745 3.2238,-2.14897 4.2984,-5.37237 l 1.0746,-3.22341 1.0746,4.29787 c 0,3.22341 0,5.37231 -1.0746,5.37231 -1.0746,0 -4.2984,1.0745 -9.6714,1.0745 -6.4476,1.0745 -7.5222,1.0745 -6.4476,0 1.0746,-2.1489 -1.0746,-27.93617 -3.2238,-29.01064 -3.2238,-1.07446 -1.0746,-2.14893 4.2984,-3.2234 13.9698,-1.07447 12.8952,-1.07447 13.9698,3.2234 2.1492,6.44681 2.1492,6.44681 0,3.22341 z m -22.5666,23.63833 c -1.0746,3.2234 -4.2984,5.3723 -11.8206,6.4468 -6.4476,2.1489 -7.5222,2.1489 -5.373,0 1.0746,-1.0745 1.0746,-2.149 -1.0746,-15.04258 -2.1492,-7.52127 -3.2238,-12.89362 -4.2984,-13.96808 -1.0746,-1.07447 0,-1.07447 3.2238,-2.14894 7.5222,-2.14894 11.8206,-1.07447 16.119,2.14894 4.2984,5.37234 6.4476,17.19149 3.2238,22.56386 z m -30.0888,6.4468 v 6.4468 l -8.5968,-12.8936 c -5.373,-7.52131 -10.746,-13.96812 -11.8206,-13.96812 -2.1492,-1.07447 -2.1492,-1.07447 2.1492,-2.14893 3.2238,-1.07447 3.2238,-1.07447 2.1492,0 0,1.07446 0,2.14893 1.0746,4.29787 2.1492,3.2234 3.2238,3.2234 6.4476,2.14893 2.1492,-1.07446 3.2238,-1.07446 3.2238,-5.37234 0,-2.14893 -1.0746,-4.29787 -2.1492,-4.29787 -1.0746,0 5.373,-2.14894 7.5222,-2.14894 1.0746,0 1.0746,1.07447 1.0746,10.74469 0,6.4468 -1.0746,13.96811 -1.0746,17.19151 z m 156.8917,-3.2234 c -3.2238,5.3723 -7.5222,8.5957 -12.8952,8.5957 -5.373,0 -9.6714,-4.2979 -9.6714,-10.7447 -2.1492,-13.96805 10.746,-26.86167 19.3428,-20.41486 6.4476,4.29787 7.5222,13.96809 3.2238,22.56386 z m 19.3428,-11.81918 c -1.0746,0 -3.2238,2.14894 -4.2984,5.37234 -2.1492,5.37234 -2.1492,6.44684 -1.0746,6.44684 1.0746,1.0744 3.2238,0 4.2984,-2.149 1.0746,-1.0744 3.2238,-2.1489 3.2238,-2.1489 0,0 -2.1492,3.2234 -3.2238,7.5213 l -3.2238,7.5213 -1.0746,-4.2979 c 0,-6.4468 -2.1492,-5.3724 -4.2984,1.0744 -2.1492,5.3724 -2.1492,5.3724 -1.0746,6.4469 3.2238,2.1489 5.373,2.1489 8.5968,-1.0745 l 3.2238,-3.2234 -2.1492,4.2979 c -1.0746,3.2234 -2.1492,4.2978 -3.2238,4.2978 -2.1492,0 -17.1936,-6.4468 -15.0444,-6.4468 1.0746,0 3.2238,-4.2979 5.373,-8.5957 6.4476,-16.11705 6.4476,-18.26598 5.373,-19.34045 -1.0746,-2.14894 0,-2.14894 5.373,1.07447 4.2984,1.07447 5.373,2.14893 3.2238,3.2234 z m -205.2487,0 c -5.373,-1.07447 -7.5222,1.07447 -7.5222,7.52128 1.0746,8.5957 7.5222,18.266 12.8952,18.266 4.2984,0 5.373,-2.149 6.4476,-7.5213 v -3.2234 l 1.0746,2.1489 c 2.1492,4.2979 3.2238,8.5958 2.1492,7.5213 -1.0746,0 -3.2238,1.0745 -5.373,2.1489 -4.2984,4.2979 -10.746,3.2234 -16.119,-3.2234 -7.5222,-7.5213 -8.5968,-19.34041 -2.1492,-23.63828 3.2238,-3.2234 10.746,-3.2234 11.8206,-1.07447 1.0746,1.07447 1.0746,1.07447 -3.2238,1.07447 z m -19.3428,7.52128 c 0,3.2234 4.2984,25.7872 5.373,30.0851 1.0746,1.0745 -4.2984,-2.1489 -9.6714,-8.5957 -6.4476,-5.3724 -12.8952,-10.7447 -13.9698,-11.8192 l -2.1492,-1.0745 3.2238,-2.1489 c 2.1492,-1.0745 3.2238,-1.0745 2.1492,1.0745 0,1.0744 0,3.2234 1.0746,4.2978 2.1492,2.149 3.2238,2.149 5.373,0 3.2238,-2.1489 4.2984,-4.2978 3.2238,-7.5212 0,-1.0745 -1.0746,-2.149 -2.1492,-2.149 -2.1492,0 5.373,-4.29784 7.5222,-4.29784 z m 260.0533,21.4894 c -3.2238,2.1489 -4.2984,3.2234 -9.6714,3.2234 -7.5222,1.0744 -9.6714,3.2234 -8.5968,6.4468 0,3.2234 5.373,3.2234 8.5968,1.0744 3.2238,-3.2234 3.2238,-2.1489 0,3.2234 -2.1492,2.149 -2.1492,3.2234 -2.1492,2.149 0,-1.0745 -1.0746,-2.149 -3.2238,-2.149 -4.2984,0 -6.4476,-2.1489 -6.4476,-6.4468 0,-7.5212 4.2984,-9.6702 16.119,-11.8191 4.2984,-1.0745 6.4476,-3.2234 5.373,-7.5213 -1.0746,-2.1489 -6.4476,-2.1489 -10.746,1.0745 -3.2238,3.2234 -3.2238,3.2234 0,-3.2234 2.1492,-4.2979 3.2238,-4.2979 4.2984,-3.2234 0,1.0744 2.1492,1.0744 3.2238,1.0744 6.4476,0 8.5968,9.6703 3.2238,16.1171 z m 24.7158,9.6702 c -1.0746,1.0744 -1.0746,0 -1.0746,-2.149 0,-3.2234 -3.2238,-7.5212 -6.4476,-6.4468 -8.5968,0 -19.3428,18.266 -13.9698,23.6383 1.0746,2.149 6.4476,2.149 8.5968,0 3.2238,-2.1489 3.2238,-1.0744 -1.0746,3.2234 -1.0746,2.149 -2.1492,3.2234 -2.1492,3.2234 0,-1.0744 -1.0746,-2.1489 -3.2238,-3.2234 -10.746,-2.1489 -11.8206,-16.117 -2.1492,-25.7872 6.4476,-6.4468 13.9698,-6.4468 19.3428,-2.1489 2.1492,2.1489 3.2238,7.5212 2.1492,9.6702 z m -315.9325,-5.3724 -3.2238,-1.0744 c -3.2238,-2.149 -7.5222,-1.0745 -8.5968,2.1489 -1.0746,2.1489 5.373,9.6702 7.5222,9.6702 1.0746,0 1.0746,-3.2234 -1.0746,-6.4468 0,-2.1489 0,-2.1489 1.0746,0 2.1492,2.1489 4.2984,5.3723 6.4476,7.5213 l 3.2238,5.3723 -3.2238,-3.2234 c -5.373,-3.2234 -6.4476,-1.0745 -2.1492,5.3724 4.2984,4.2978 4.2984,5.3723 6.4476,3.2234 2.1492,-2.149 3.2238,-5.3724 2.1492,-8.5958 l 1.0746,1.0745 3.2238,4.2979 -7.5222,5.3723 c -3.2238,3.2234 -7.5222,5.3723 -7.5222,5.3723 v -1.0744 c 1.0746,-2.149 -2.1492,-5.3724 -7.5222,-12.8936 -7.5222,-9.6703 -8.5968,-10.7447 -10.746,-10.7447 h -1.0746 c 0,-1.0745 16.119,-12.8936 16.119,-12.8936 0,0 1.0746,2.1489 3.2238,4.2978 z M 510.1665,316.701 c 1.0746,13.9681 0,40.8298 -2.1492,55.8723 -16.119,88.1064 -83.8188,156.8724 -171.936,172.9894 -18.2682,3.2234 -54.8047,3.2234 -71.9983,0 -42.984,-8.5958 -79.5204,-26.8617 -110.6838,-55.8724 -90.26643,-87.0319 -85.96803,-231.0106 9.6714,-313.7446 26.865,-23.6383 61.2522,-39.7554 97.7886,-46.2022 17.1936,-3.2234 17.1936,-3.2234 42.9841,-3.2234 18.2682,0 24.7158,1.0745 34.3872,2.149 93.4902,19.3404 161.19,92.4042 171.936,188.0319 z M 480.0777,138.3393 c -2.1492,-1.0745 -4.2984,2.1489 -10.746,9.6702 -4.2984,5.3723 -8.5968,11.8191 -8.5968,12.8936 0,1.0745 0,1.0745 -4.2984,-2.1489 -3.2238,-3.2234 -4.2984,-3.2234 -2.1492,-4.2979 1.0746,0 6.4476,-4.2979 10.746,-9.6702 6.4476,-7.5213 8.5968,-10.7447 7.5222,-12.8936 0,-1.0745 0,-1.0745 2.1492,0 2.1492,1.0744 4.2984,3.2234 5.373,4.2978 2.1492,2.149 2.1492,2.149 0,2.149 z m -347.0959,18.2659 c 0,2.149 0,4.2979 1.0746,5.3724 2.1492,2.1489 2.1492,3.2234 4.2984,2.1489 3.2238,-2.1489 3.2238,-5.3723 1.0746,-9.6702 -1.0746,-3.2234 0,-2.1489 3.2238,2.1489 2.1492,2.149 3.2238,3.2234 2.1492,3.2234 -1.0746,0 -2.1492,0 -2.1492,1.0745 -2.1492,6.4468 -8.5968,7.5213 -13.9698,2.1489 -2.1492,-2.1489 -2.1492,-3.2234 -2.1492,-11.8191 1.0746,-8.5957 0,-11.8192 -4.2984,-11.8192 -4.2984,0 -5.373,6.4469 -2.1492,11.8192 2.1492,3.2234 1.0746,3.2234 -2.1492,-1.0745 -4.2984,-3.2234 -6.4476,-7.5212 -4.2984,-5.3723 1.0746,0 2.1492,-1.0745 3.2238,-3.2234 2.1492,-3.2234 3.2238,-4.2979 6.4476,-4.2979 3.2238,0 5.373,1.0745 7.5222,4.2979 3.2238,3.2234 4.2984,7.5213 2.1492,15.0425 z m 363.2149,1.0745 c -3.2238,4.2979 -4.2984,4.2979 -3.2238,1.0745 2.1492,-3.2234 1.0746,-6.4468 -2.1492,-8.5958 -2.1492,-2.1489 -2.1492,-2.1489 -6.4476,2.149 -2.1492,2.1489 -3.2238,4.2978 -3.2238,5.3723 0,1.0745 4.2984,1.0745 5.373,-1.0745 1.0746,0 0,2.149 -3.2238,5.3724 l -5.373,5.3723 c -1.0746,0 0,-1.0744 0,-2.1489 2.1492,-1.0745 2.1492,-6.4468 1.0746,-6.4468 -1.0746,0 -3.2238,2.1489 -5.373,4.2978 -4.2984,4.2979 -4.2984,4.2979 -2.1492,6.4469 2.1492,3.2234 5.373,3.2234 8.5968,1.0744 1.0746,0 1.0746,0 -1.0746,3.2234 l -3.2238,3.2234 -6.4476,-6.4468 c -7.5222,-6.4468 -8.5968,-8.5957 -5.373,-7.5213 1.0746,0 5.373,-2.1489 11.8206,-8.5957 7.5222,-8.5957 9.6714,-10.7447 8.5968,-12.8936 0,-1.0745 2.1492,0 6.4476,5.3723 l 7.5222,7.5213 z m -383.6323,-4.2979 4.2984,2.149 h -4.2984 c -4.2984,-1.0745 -5.373,0 -7.5222,1.0744 -2.1492,3.2234 -2.1492,4.2979 3.2238,8.5958 4.2984,3.2234 5.373,3.2234 5.373,2.1489 0,-2.1489 -1.0746,-4.2979 -2.1492,-5.3723 0,-1.0745 1.0746,0 5.373,3.2234 6.4476,5.3723 7.5222,6.4468 4.2984,5.3723 -3.2238,-2.1489 -6.4476,-2.1489 -6.4476,-1.0744 0,1.0744 1.0746,3.2234 4.2984,5.3723 4.2984,3.2234 4.2984,3.2234 6.4476,2.1489 2.1492,-2.1489 2.1492,-7.5212 0,-8.5957 v -2.1489 c 1.0746,0 2.1492,2.1489 3.2238,3.2234 3.2238,3.2234 4.2984,2.1489 -6.4476,13.968 -4.2984,4.2979 -6.4476,7.5213 -6.4476,8.5958 h -1.0746 c -1.0746,0 -1.0746,0 -1.0746,-1.0745 1.0746,-1.0745 -3.2238,-5.3723 -10.746,-9.6702 l -2.1492,-2.1489 4.2984,10.7446 4.2984,9.6703 -5.373,8.5957 c -3.2238,4.2979 -6.44762,10.7447 -8.59682,13.9681 -2.1492,3.2234 -3.2238,5.3723 -3.2238,4.2979 0,-1.0745 -2.1492,-2.149 -6.4476,-4.2979 l -5.373,-2.1489 -2.1492,3.2234 -1.0746,3.2234 4.2984,2.1489 c 3.2238,2.1489 6.4476,2.1489 7.5222,2.1489 l 3.2238,-1.0744 -3.2238,5.3723 c -2.1492,5.3723 -4.2984,7.5213 -3.2238,4.2979 1.0746,-1.0745 -2.1492,-3.2234 -11.82061,-7.5213 -7.5222,-3.2234 -12.8952,-6.4468 -15.0444,-5.3723 -1.0746,0 -1.0746,0 0,-3.2234 1.0746,-2.149 2.1492,-5.3724 2.1492,-5.3724 1.0746,-1.0744 1.0746,-1.0744 2.1492,0 0,2.149 3.2238,4.2979 6.4476,5.3724 l 5.373,2.1489 1.07461,-3.2234 c 1.0746,-1.0745 2.1492,-3.2234 2.1492,-3.2234 0,0 -3.22381,-2.1489 -6.44761,-3.2234 -4.2984,-2.149 -5.373,-3.2234 -7.5222,-2.149 -1.0746,1.0745 -1.0746,1.0745 1.0746,-4.2978 2.1492,-4.2979 3.2238,-4.2979 3.2238,-3.2234 1.0746,1.0744 5.373,4.2978 12.89521,7.5212 6.4476,3.2235 11.8206,5.3724 12.8952,5.3724 1.0746,0 2.1492,0 2.1492,-2.1489 2.1492,-2.149 1.0746,-3.2235 -11.8206,-11.8192 -9.67141,-5.3723 -11.82061,-6.4468 -12.89521,-4.2979 -1.0746,0 -1.0746,-1.0744 1.0746,-4.2978 3.22381,-6.4469 4.29841,-7.5213 4.29841,-4.2979 0,2.1489 20.4174,15.0425 23.64122,15.0425 2.1492,0 3.2238,0 3.2238,-2.1489 0,-3.2234 -2.1492,-4.2979 -11.82062,-10.7447 -6.4476,-5.3723 -10.746,-7.5213 -11.8206,-7.5213 -1.0746,0 -1.0746,0 -1.0746,-1.0744 2.1492,-3.2234 4.2984,-4.2979 4.2984,-2.149 0,1.0745 16.119,15.0426 17.19362,13.9681 l -2.14922,-6.4468 c -5.373,-10.7447 -8.5968,-21.4893 -8.5968,-21.4893 0,0 5.373,4.2978 11.82062,8.5957 6.4476,5.3723 12.8952,8.5957 13.9698,8.5957 1.0746,0 2.1492,0 3.2238,-1.0744 1.0746,-2.149 0,-3.2234 -9.6714,-11.8192 -7.5222,-7.5212 -9.67142,-9.6702 -11.82062,-8.5957 -3.2238,0 -3.2238,0 0,-3.2234 7.52222,-7.5213 10.74602,-11.8192 11.82062,-11.8192 z m 393.3037,10.7447 c -2.1492,0 -5.373,2.149 -10.746,6.4468 -5.373,4.2979 -8.5968,7.5213 -8.5968,7.5213 0,0 6.4476,-1.0745 13.9698,-2.1489 8.5968,-1.0745 15.0444,-2.149 15.0444,-2.149 0,0 -4.2984,4.2979 -10.746,9.6702 -7.5222,6.4468 -10.746,9.6703 -10.746,11.8192 0,1.0745 -1.0746,2.1489 -2.1492,0 -1.0746,0 -2.1492,-2.1489 -3.2238,-3.2234 0,-1.0745 0,-1.0745 2.1492,-1.0745 1.0746,0 4.2984,-1.0745 7.5222,-4.2979 3.2238,-2.1489 5.373,-4.2978 5.373,-4.2978 -1.0746,0 -5.373,0 -10.746,1.0744 -9.6714,1.0745 -9.6714,1.0745 -11.8206,-1.0744 -3.2238,-2.149 -3.2238,-4.2979 0,-4.2979 3.2238,0 20.4174,-13.9681 20.4174,-17.1915 1.0746,-3.2234 1.0746,-3.2234 3.2238,0 2.1492,3.2234 2.1492,3.2234 1.0746,3.2234 z m 22.5666,36.5319 c -1.0746,2.149 -1.0746,2.149 -1.0746,-2.1489 2.1492,-9.6702 -7.5222,-10.7447 -19.3428,-2.1489 -3.2238,2.1489 -5.373,6.4468 -5.373,9.6702 0,3.2234 4.2984,6.4468 8.5968,5.3723 h 3.2238 c 0,0 -2.1492,1.0745 -5.373,3.2234 -2.1492,1.0745 -3.2238,2.149 -3.2238,2.149 0,-1.0745 -1.0746,-3.2235 -3.2238,-5.3724 -3.2238,-3.2234 -3.2238,-4.2979 -3.2238,-7.5213 0,-13.9681 19.3428,-24.7127 27.9396,-15.0425 3.2238,4.2979 3.2238,8.5957 1.0746,11.8191 z m 10.746,23.6383 -3.2238,2.149 2.1492,-3.2234 c 3.2238,-3.2234 3.2238,-5.3724 1.0746,-8.5958 l -2.1492,-2.1489 -5.373,2.1489 c -5.373,3.2234 -6.4476,5.3724 0,5.3724 3.2238,0 3.2238,0 -3.2238,3.2234 -8.5968,4.2978 -9.6714,4.2978 -6.4476,1.0744 2.1492,-1.0744 3.2238,-5.3723 2.1492,-5.3723 0,0 -3.2238,2.1489 -6.4476,3.2234 -4.2984,2.1489 -4.2984,3.2234 -4.2984,4.2979 2.1492,3.2234 4.2984,5.3723 7.5222,4.2978 1.0746,0 2.1492,0 2.1492,1.0745 -1.0746,0 -6.4476,3.2234 -7.5222,2.1489 -1.0746,0 -7.5222,-15.0425 -7.5222,-15.0425 h 1.0746 c 2.1492,1.0745 25.7904,-11.8192 25.7904,-13.9681 1.0746,-1.0745 2.1492,0 5.373,6.4468 2.1492,4.2979 3.2238,8.5958 3.2238,9.6702 0,0 -2.1492,2.149 -4.2984,3.2234 z m 9.6714,6.4468 c 5.373,3.2234 4.2984,9.6702 -2.1492,12.8937 -4.2984,3.2234 -6.4476,3.2234 -13.9698,-1.0745 -5.373,-2.149 -7.5222,-3.2234 -8.5968,-2.149 -5.373,3.2235 -2.1492,7.5213 4.2984,8.5958 h 4.2984 l -4.2984,1.0745 c -5.373,3.2234 -6.4476,3.2234 -5.373,1.0744 0,0 0,-2.1489 -1.0746,-3.2234 -2.1492,-2.1489 -2.1492,-4.2978 -2.1492,-4.2978 0,-3.2235 2.1492,-6.4469 7.5222,-8.5958 3.2238,-1.0745 4.2984,-1.0745 10.746,3.2234 6.4476,3.2234 6.4476,3.2234 9.6714,1.0745 3.2238,-2.149 3.2238,-3.2234 1.0746,-6.4468 -1.0746,-1.0745 -3.2238,-2.149 -6.4476,-2.149 h -5.373 l 4.2984,-2.1489 c 4.2984,-2.1489 7.5222,-2.1489 6.4476,-1.0745 0,1.0745 0,2.149 1.0746,3.2234 z M 66.35657,252.2329 c 6.4476,2.1489 9.67141,2.1489 12.89521,0 3.2238,-2.1489 3.2238,-6.4468 0,-10.7447 -3.2238,-2.1489 -3.2238,-3.2234 -1.0746,-2.1489 4.2984,1.0744 8.5968,3.2234 7.5222,3.2234 -1.0746,0 -1.0746,2.1489 -1.0746,5.3723 0,7.5213 -9.67141,12.8936 -19.34281,10.7447 -6.4476,-2.1489 -9.6714,-4.2979 -12.8952,-8.5957 -3.2238,-6.4468 0,-16.1171 6.4476,-15.0426 3.2238,0 3.2238,0 0,1.0745 -8.5968,3.2234 -5.373,12.8936 7.5222,16.117 z m 455.63053,167.617 c 1.0746,0 2.1492,1.0745 2.1492,2.149 0,1.0744 -1.0746,2.1489 -3.2238,1.0744 -2.1492,0 -3.2238,0 -4.2984,3.2234 -3.2238,3.2234 -2.1492,4.2979 3.2238,6.4468 2.1492,0 5.373,1.0745 6.4476,2.149 1.0746,1.0744 2.1492,2.1489 3.2238,1.0744 1.0746,-2.1489 5.373,-2.1489 5.373,0 0,1.0745 -2.1492,2.149 -4.2984,4.2979 -5.373,4.2979 -6.4476,6.4468 -2.1492,4.2979 2.1492,-1.0745 4.2984,-2.149 4.2984,-3.2234 0,-1.0745 1.0746,-2.149 2.1492,-2.149 1.0746,0 3.2238,0 5.373,-2.1489 2.1492,-1.0745 5.373,-2.1489 6.4476,-2.1489 3.2238,0 7.5222,3.2234 7.5222,5.3723 0,2.1489 -6.4476,8.5958 -13.9698,11.8192 l -3.2238,2.1489 3.2238,1.0745 c 3.2238,2.1489 3.2238,3.2234 1.0746,4.2978 -6.4476,0 -10.746,-1.0744 -12.8952,-3.2234 -3.2238,-3.2234 -3.2238,-3.2234 -1.0746,-4.2978 1.0746,-1.0745 2.1492,-1.0745 3.2238,-1.0745 0,0 1.0746,0 1.0746,-2.1489 0,-1.0745 -1.0746,-2.149 -4.2984,-1.0745 -3.2238,0 -4.2984,0 -5.373,-2.1489 -2.1492,-1.0745 -3.2238,-1.0745 -5.373,-1.0745 -1.0746,0 -3.2238,0 -5.373,-1.0745 l -3.2238,-1.0745 3.2238,-2.1489 c 2.1492,-1.0745 5.373,-3.2234 7.5222,-3.2234 l 3.2238,-1.0745 -4.2984,-1.0744 c -3.2238,-1.0745 -6.4476,-2.149 -7.5222,-4.2979 l -2.1492,-3.2234 3.2238,-2.1489 c 1.0746,-1.0745 3.2238,-4.2979 4.2984,-6.4468 2.1492,-5.3724 4.2984,-5.3724 4.2984,-2.149 1.0746,1.0745 1.0746,2.149 2.1492,3.2234 z m -454.55593,3.2234 c -3.2238,1.0745 -3.2238,2.149 -3.2238,5.3724 -1.0746,5.3723 0,5.3723 5.373,3.2234 3.2238,-1.0745 3.2238,-2.149 1.0746,-4.2979 -1.0746,-1.0745 -1.0746,-2.1489 0,-3.2234 2.1492,-1.0745 5.37301,0 5.37301,3.2234 0,1.0745 0,2.1489 1.0746,1.0745 13.9698,-5.3724 22.5666,-6.4468 16.119,-2.149 -2.1492,1.0745 -6.4476,5.3724 -10.746,8.5958 -6.4476,5.3723 -6.4476,6.4468 -7.52221,11.8191 0,6.4468 -2.1492,8.5958 -3.2238,4.2979 -1.0746,-5.3723 -3.2238,-4.2979 -5.373,5.3723 -1.0746,6.4468 -2.1492,7.5213 -4.2984,7.5213 -2.1492,0 -4.2984,-4.2979 -4.2984,-7.5213 0,-5.3723 -1.0746,-6.4468 -5.373,-4.2978 -3.2238,2.1489 -4.2984,2.1489 -5.373,1.0744 -1.0746,-1.0744 -3.22381,-2.1489 -4.29841,-2.1489 -1.0746,0 -2.1492,-2.1489 -2.1492,-3.2234 -1.0746,-2.1489 1.0746,-5.3724 3.2238,-4.2979 2.14921,1.0745 10.74601,-3.2234 11.82061,-5.3723 2.1492,-2.149 5.373,-16.117 5.373,-17.1915 h -5.373 c -5.373,1.0745 -6.4476,0 -3.2238,-3.2234 3.2238,-2.149 13.9698,-3.2234 16.119,-1.0745 2.1492,2.149 2.1492,5.3724 -1.0746,6.4468 z m 485.71933,35.4575 c -1.0746,-1.0745 -2.1492,-3.2234 -3.2238,-3.2234 -2.1492,0 -2.1492,-2.149 1.0746,-4.2979 4.2984,-2.1489 5.373,-1.0745 5.373,4.2979 0,5.3723 -2.1492,6.4468 -3.2238,3.2234 z m -49.4316,-2.149 c 4.2984,1.0745 9.6714,3.2234 12.8952,6.4468 3.2238,3.2234 4.2984,3.2234 3.2238,1.0745 0,-5.3723 5.373,-6.4468 9.6714,-1.0745 1.0746,1.0745 3.2238,3.2234 3.2238,4.2979 0,0 1.0746,1.0745 3.2238,2.149 4.2984,2.1489 4.2984,2.1489 1.0746,7.5212 -2.1492,4.2979 -2.1492,4.2979 -5.373,2.149 -1.0746,0 -2.1492,-1.0745 -1.0746,-4.2979 0,-3.2234 0,-4.2979 -3.2238,-6.4468 -3.2238,-3.2234 -3.2238,-3.2234 -3.2238,-1.0745 -1.0746,1.0745 -2.1492,3.2234 -2.1492,4.2979 -1.0746,2.1489 -1.0746,2.1489 -9.6714,0 -16.119,-3.2234 -16.119,-3.2234 -19.3428,-9.6702 -1.0746,-3.2234 -1.0746,-3.2234 0,-5.3724 2.1492,-3.2234 2.1492,-3.2234 5.373,-1.0744 2.1492,1.0744 4.2984,1.0744 5.373,1.0744 z M 155.5484,518.701 c -1.0746,3.2234 -1.0746,6.4468 -1.0746,6.4468 0,0 2.1492,0 4.2984,-1.0745 2.1492,-2.1489 5.373,-2.1489 9.6714,-2.1489 4.2984,0 6.4476,0 12.8952,3.2234 3.2238,3.2234 7.5222,5.3723 7.5222,7.5213 2.1492,2.1489 2.1492,3.2234 -3.2238,8.5957 -2.1492,3.2234 -7.5222,11.8192 -11.8206,17.1915 -8.5968,12.8936 -12.8952,18.266 -18.2682,18.266 -6.4476,0 -13.9698,-10.7447 -17.1936,-23.6383 -1.0746,-7.5213 -1.0746,-8.5958 6.4476,-19.3405 6.4476,-8.5957 8.5968,-15.0425 7.5222,-17.1915 0,0 -2.1492,3.2235 -5.373,9.6703 -5.373,10.7446 -9.6714,17.1914 -10.746,18.2659 -2.1492,1.0745 -1.0746,-2.1489 2.1492,-7.5213 1.0746,-2.1489 4.2984,-8.5957 7.5222,-13.968 3.2238,-5.3724 5.373,-10.7447 6.4476,-11.8192 2.1492,-2.1489 5.373,-2.1489 5.373,0 0,1.0745 -1.0746,5.3723 -2.1492,7.5213 z m 282.6199,5.3723 4.2984,-2.1489 c 1.0746,1.0745 -3.2238,5.3723 -5.373,5.3723 -3.2238,0 0,9.6702 4.2984,12.8936 3.2238,1.0745 4.2984,5.3724 2.1492,7.5213 -1.0746,2.149 -8.5968,4.2979 -10.746,3.2234 -1.0746,-1.0744 0,-2.1489 2.1492,-4.2978 4.2984,-3.2235 4.2984,-4.2979 0,-6.4469 -2.1492,-1.0744 -3.2238,-2.1489 -2.1492,-4.2978 0,-2.149 0,-3.2234 -1.0746,-3.2234 -3.2238,0 -11.8206,6.4468 -12.8952,9.6702 -1.0746,2.1489 -4.2984,2.1489 -4.2984,0 0,-2.149 4.2984,-7.5213 10.746,-10.7447 4.2984,-2.1489 4.2984,-5.3723 0,-5.3723 -2.1492,-1.0745 -4.2984,0 -7.5222,4.2978 -4.2984,3.2234 -4.2984,4.2979 -4.2984,2.149 0,-2.149 1.0746,-4.2979 4.2984,-7.5213 4.2984,-4.2979 6.4476,-4.2979 12.8952,-1.0745 2.1492,2.149 3.2238,2.149 7.5222,0 z m 21.492,26.8617 v 5.3724 l 6.4476,-1.0745 c 6.4476,0 6.4476,0 6.4476,3.2234 1.0746,4.2979 -1.0746,5.3723 -4.2984,3.2234 -3.2238,-2.1489 -3.2238,-3.2234 -16.119,-1.0745 -9.6714,0 -12.8952,1.0745 -12.8952,2.149 0,1.0744 -2.1492,1.0744 -3.2238,1.0744 -3.2238,0 -4.2984,-1.0744 -6.4476,-4.2978 -4.2984,-5.3724 -4.2984,-8.5958 -2.1492,-8.5958 1.0746,0 4.2984,2.149 7.5222,4.2979 5.373,2.1489 7.5222,3.2234 10.746,2.1489 3.2238,0 6.4476,-1.0744 7.5222,-2.1489 2.1492,-1.0745 3.2238,-2.1489 2.1492,-5.3723 -1.0746,-4.2979 -2.1492,-6.4469 -5.373,-6.4469 -2.1492,0 -2.1492,-1.0744 0,-2.1489 2.1492,-1.0745 4.2984,0 6.4476,2.1489 2.1492,2.149 3.2238,4.2979 3.2238,7.5213 z m -141.8472,31.1596 c 0,4.2979 1.0746,6.4468 3.2238,6.4468 3.2238,2.1489 3.2238,2.1489 1.0746,6.4468 -2.1492,2.149 -2.1492,3.2234 -2.1492,9.6702 1.0746,5.3724 0,7.5213 0,7.5213 -1.0746,0 -1.0746,1.0745 -1.0746,2.1489 0,2.149 -3.2238,2.149 -6.4476,-1.0744 -2.1492,-2.149 -3.2238,-2.149 -5.373,-2.149 -3.2238,1.0745 -3.2238,-1.0744 -2.1492,-3.2234 1.0746,-1.0744 1.0746,-3.2234 0,-4.2978 -1.0746,-2.149 -1.0746,-4.2979 -1.0746,-6.4468 0,-2.149 0,-4.2979 -1.0746,-6.4469 -3.2239,-3.2234 -4.2985,-10.7446 -2.1493,-10.7446 0,1.0744 2.1493,1.0744 2.1493,2.1489 1.0746,1.0745 3.2238,2.1489 5.373,2.1489 h 2.1492 v -13.968 c -1.0746,-6.4469 0,-12.8937 0,-11.8192 0,0 2.1492,4.2979 3.2238,9.6702 2.1492,4.2979 3.2238,10.7447 4.2984,13.9681 z m 146.1456,-16.117 c -1.0746,1.0744 -3.2238,2.1489 -3.2238,3.2234 -1.0746,4.2979 -4.2984,2.1489 -5.373,-3.2234 v -3.2234 h 6.4476 c 3.2238,1.0744 6.4476,1.0744 6.4476,1.0744 0,1.0745 -2.1492,2.149 -4.2984,2.149 z m -13.9698,10.7447 v 5.3723 l -4.2984,-4.2979 c -4.2984,-3.2234 -4.2984,-6.4468 -2.1492,-8.5957 1.0746,-2.149 3.2238,-2.149 5.373,0 1.0746,2.1489 2.1492,4.2979 1.0746,7.5213 z m -154.7425,10.7446 c 3.2238,4.2979 3.2238,5.3724 1.0746,4.2979 -3.2238,-1.0745 -3.2238,1.0745 0,3.2234 3.2238,2.149 3.2238,3.2234 1.0746,4.2979 -3.2238,2.1489 -4.2984,2.1489 -6.4476,-1.0745 -1.0746,-2.1489 -2.1492,-3.2234 -5.373,-3.2234 -2.1492,0 -3.2238,1.0745 -3.2238,1.0745 0,1.0745 13.9698,16.117 15.0444,16.117 2.1492,1.0745 2.1492,2.1489 0,4.2979 -3.2238,2.1489 -5.373,1.0744 -6.4476,-1.0745 0,-1.0745 -3.2238,-6.4468 -7.5222,-10.7447 -4.2984,-4.2978 -7.5222,-9.6702 -7.5222,-10.7447 0,-2.1489 0,-2.1489 5.373,-2.1489 7.5222,1.0745 8.5968,0 7.5222,-5.3723 -1.0746,-3.2234 -3.2238,-3.2234 -3.2238,-1.0745 0,5.3723 -6.4476,0 -7.5222,-5.3723 -1.0746,-6.4468 1.0746,-6.4468 5.373,-3.2234 3.2238,3.2234 5.373,3.2234 6.4476,-1.0745 0,-3.2234 1.0746,-4.2979 3.2238,-4.2979 2.1492,0 2.1492,1.0745 1.0746,7.5213 -1.0746,5.3723 0,6.4468 1.0746,8.5957 z M 245.8148,86.76481 c 1.0746,3.22341 2.1492,9.67022 2.1492,12.89362 2.1492,6.44677 3.2238,7.52127 6.4476,3.22337 3.2238,-4.29784 0,-21.48933 -5.373,-24.71273 -2.1492,-1.07447 -3.2238,-1.07447 -4.2984,0 0,1.07447 0,4.29787 1.0746,8.59574 z m -24.7158,12.89362 2.1492,3.22337 v -5.37231 -4.29787 c 0,0 -1.0746,0 -2.1492,1.07447 -3.2238,1.07447 -3.2238,1.07447 0,5.37234 z m 149.3695,10.74467 c 4.2984,4.2979 9.6714,-3.2234 12.8952,-15.04254 1.0746,-9.67021 -1.0746,-15.04256 -7.5222,-10.74468 -4.2984,2.14893 -9.6714,23.63832 -5.373,25.78722 z m -195.5773,9.6702 c 2.1492,1.0745 4.2984,3.2234 4.2984,2.149 l -2.1492,-9.6703 c -1.0746,0 -2.1492,1.0745 -3.2238,2.149 -2.1492,1.0745 -2.1492,1.0745 1.0746,5.3723 z M 129.758,222.1478 C 87.84858,285.5414 83.55018,367.201 119.012,433.818 c 20.4174,37.6064 50.5062,66.617 89.1918,85.9575 56.9538,29.0106 123.5791,29.0106 180.5329,1.0744 41.9094,-20.4149 73.0728,-51.5744 93.4902,-93.4787 29.0142,-56.9468 29.0142,-124.6383 0,-181.5851 -10.746,-21.4894 -21.492,-36.5319 -38.6856,-53.7234 -33.3126,-33.3085 -75.222,-53.7234 -122.5044,-58.0213 -11.8206,-2.1489 -33.3127,-2.1489 -44.0587,0 -60.1776,6.4468 -113.9076,38.6809 -147.2202,88.1064 z m 368.5879,94.5532 c 5.373,41.9042 -5.373,87.0319 -26.865,123.5638 -16.119,25.7872 -41.9094,51.5745 -67.6998,67.6915 -69.849,42.9787 -157.9663,38.6809 -223.5169,-10.7447 -56.9538,-41.9042 -87.04262,-111.7447 -79.5204,-180.5106 6.4476,-65.5426 45.1332,-123.5638 102.087,-154.7234 19.3428,-11.8192 46.2078,-20.4149 66.6252,-22.5639 5.373,-1.0744 10.746,-2.1489 11.8206,-2.1489 4.2984,-1.0745 44.0587,0 52.6555,2.1489 89.1918,16.1171 154.7424,87.032 164.4138,177.2873 z m 34.3872,133.234 c 0,1.0745 0,1.0745 3.2238,0 2.1492,0 5.373,-2.1489 8.5968,-4.2978 4.2984,-3.2235 4.2984,-4.2979 3.2238,-5.3724 -1.0746,-2.1489 -1.0746,-2.1489 -6.4476,1.0745 -5.373,3.2234 -7.5222,5.3723 -8.5968,8.5957 z m -472.82413,2.149 c 1.0746,3.2234 3.2238,2.1489 4.2984,-2.149 1.0746,-4.2978 0,-4.2978 -2.1492,-2.1489 -2.1492,2.1489 -3.2238,3.2234 -2.1492,4.2979 z m 109.60923,77.3617 4.2984,4.2978 c 0,1.0745 -2.1492,3.2234 -3.2238,5.3724 -2.1492,4.2978 -2.1492,4.2978 0,8.5957 2.1492,3.2234 1.0746,5.3724 -2.1492,4.2979 -3.2238,-1.0745 -4.2984,-3.2234 -4.2984,-8.5958 0,-2.1489 -1.0746,-3.2234 -1.0746,-3.2234 -1.0746,-1.0744 -1.0746,0 -1.0746,2.149 1.0746,3.2234 0,4.2979 -4.2984,8.5957 -5.373,5.3724 -6.4476,5.3724 -9.6714,5.3724 -3.2238,-1.0745 -4.2984,0 -4.2984,0 0,2.1489 2.1492,7.5212 4.2984,11.8191 4.2984,5.3724 7.5222,5.3724 12.8952,2.149 3.2238,-2.149 5.373,-4.2979 6.4476,-5.3724 1.0746,-2.1489 5.373,-8.5957 9.6714,-16.117 4.2984,-6.4468 7.5222,-11.8192 7.5222,-12.8936 1.0746,-1.0745 -6.4476,-8.5958 -9.6714,-9.6702 -4.2984,-2.149 -8.5968,-3.2234 -8.5968,-1.0745 0,1.0745 1.0746,3.2234 3.2238,4.2979 z m -10.746,31.1595 c -3.2238,1.0745 -4.2984,0 -3.2238,-3.2234 0,-2.1489 1.0746,-3.2234 3.2238,-2.1489 2.1492,0 3.2238,1.0745 3.2238,2.1489 0,1.0745 -1.0746,2.149 -3.2238,3.2234 z m -10.746,-27.9361 c -4.2984,5.3723 -4.2984,6.4468 -5.373,12.8936 v 6.4468 c 0,1.0745 1.0746,0 1.0746,-2.1489 0,-1.0745 0,-2.149 2.1492,-3.2234 1.0746,-1.0745 2.1492,-2.149 2.1492,-4.2979 0,-1.0745 1.0746,-3.2234 2.1492,-4.2979 1.0746,0 2.1492,-2.1489 2.1492,-3.2234 0,-1.0745 0,-3.2234 1.0746,-3.2234 2.1492,-2.1489 5.373,-1.0745 6.4476,2.1489 0,1.0745 1.0746,2.149 1.0746,2.149 1.0746,1.0744 2.1492,0 1.0746,-3.2234 0,-1.0745 -1.0746,-4.2979 -1.0746,-5.3724 v -2.1489 c 0,0 -2.1492,0 -3.2238,1.0745 -2.1492,1.0744 -6.4476,4.2978 -9.6714,6.4468 z m 19.3428,2.1489 c 0,-1.0745 -1.0746,-2.1489 -1.0746,-2.1489 -1.0746,0 -1.0746,0 -1.0746,1.0744 1.0746,3.2234 3.2238,4.2979 2.1492,1.0745 z m -11.8206,2.1489 c 0,0 1.0746,0 1.0746,-1.0744 l -1.0746,-1.0745 c -1.0746,0 -1.0746,1.0745 -1.0746,1.0745 0,1.0744 0,1.0744 1.0746,1.0744 z m 3.2238,8.5958 c 1.0746,-1.0745 1.0746,-5.3724 -1.0746,-5.3724 0,0 -1.0746,1.0745 -1.0746,2.149 -1.0746,2.1489 0,4.2979 2.1492,3.2234 z m 147.2203,42.9787 c 0,1.0745 1.0746,2.1489 2.1492,4.2979 l 3.2238,3.2234 -1.0746,-3.2234 c 0,-2.149 -1.0746,-3.2234 -2.1492,-4.2979 z m 4.2984,15.0426 c 1.0746,2.1489 1.0746,2.1489 1.0746,-1.0745 1.0746,-4.2979 -1.0746,-5.3723 -2.1492,-2.1489 0,1.0744 0,2.1489 1.0746,3.2234 z M 255.4862,160.9031 c -5.373,9.6702 -11.8206,21.4894 -15.0444,26.8617 -3.2238,5.3724 -5.373,9.6702 -5.373,10.7447 0,1.0745 4.2984,12.8936 8.5968,26.8617 5.373,13.9681 9.6714,25.7872 8.5968,25.7872 0,0 -20.4174,-3.2234 -44.0586,-8.5957 l -44.0586,-8.5958 -23.6412,18.266 c -12.8952,8.5957 -24.7158,17.1915 -24.7158,18.266 -2.1492,1.0744 0,5.3723 13.9698,27.9361 8.5968,13.9681 17.1936,25.7873 18.2682,26.8617 1.0746,0 12.8952,2.149 25.7904,5.3724 12.8952,2.1489 24.7158,4.2978 25.7904,4.2978 1.0746,1.0745 -3.2238,7.5213 -27.9396,35.4575 -25.7904,30.0851 -29.0142,34.383 -29.0142,36.5319 0,2.1489 2.1492,16.117 3.2238,31.1596 2.1492,15.0425 4.2984,27.9361 4.2984,27.9361 0,1.0745 62.3268,-2.1489 63.4014,-2.1489 26.865,-32.234 35.4618,-41.9042 35.4618,-41.9042 0,0 6.4476,19.3404 15.0444,42.9787 9.6714,30.0851 15.0444,42.9787 16.119,44.0532 1.0746,0 13.9698,5.3723 29.0143,11.8191 l 26.865,11.8192 15.0444,-26.8617 c 7.5222,-15.0426 13.9698,-27.9362 15.0444,-27.9362 0,-1.0745 -4.2984,-12.8936 -9.6714,-27.9362 -5.373,-13.9681 -8.5968,-25.7872 -8.5968,-25.7872 0,0 19.3428,3.2234 44.0586,8.5957 23.6412,4.2979 44.0586,7.5213 45.1332,7.5213 1.0746,0 11.8206,-8.5957 25.7904,-18.2659 20.4174,-15.0426 23.6412,-18.266 23.6412,-19.3405 -1.0746,-2.1489 -32.238,-51.5744 -32.238,-51.5744 0,0 -11.8206,-3.2234 -25.7904,-5.3724 -13.9698,-3.2234 -26.865,-5.3723 -27.9396,-5.3723 -1.0746,-1.0745 3.2238,-6.4468 26.865,-34.383 24.7158,-27.9362 30.0888,-34.383 30.0888,-37.6064 0,-3.2234 -6.4476,-59.0957 -7.5222,-59.0957 0,0 -13.9698,0 -31.1634,1.0744 -21.492,0 -31.1634,1.0745 -32.238,2.149 -1.0746,0 -8.5968,9.6702 -18.2682,20.4149 l -17.1936,20.4149 -13.9698,-42.9788 -15.0444,-41.9042 -6.4476,-3.2234 c -3.2238,-1.0745 -16.1191,-6.4468 -29.0143,-11.8192 l -21.492,-9.6702 z m 62.3269,109.5958 c 0,2.1489 -2.1492,4.2978 -4.2984,6.4468 -3.2238,3.2234 -4.2984,4.2978 -8.5968,3.2234 -6.4477,-1.0745 -9.6715,-4.2979 -9.6715,-10.7447 0,-4.2979 0,-5.3724 3.2238,-8.5958 4.2985,-3.2234 8.5969,-3.2234 12.8953,-1.0744 4.2984,2.1489 6.4476,5.3723 6.4476,10.7447 z m -64.4761,35.4574 c -9.6714,8.5957 -23.6412,-2.1489 -18.2682,-12.8936 3.2238,-7.5213 12.8952,-8.5958 18.2682,-3.2234 4.2984,5.3723 4.2984,11.8191 0,16.117 z m 69.8491,6.4468 c 0,0 1.0746,-1.0745 2.1492,-3.2234 2.1492,-2.1489 2.1492,-4.2979 3.2238,-4.2979 0,1.0745 1.0746,9.6702 2.1492,20.4149 l 2.1492,19.3405 h 5.373 c 3.2238,-1.0745 6.4476,0 6.4476,0 0,0 -10.746,8.5957 -33.3126,24.7127 -1.0746,0 1.0746,2.149 2.1492,5.3724 2.1492,3.2234 2.1492,5.3723 1.0746,4.2978 0,0 -8.5968,-4.2978 -18.2683,-7.5212 -9.6714,-4.2979 -18.2682,-8.5958 -18.2682,-8.5958 -1.0746,0 -2.1492,2.1489 -3.2238,5.3724 -3.2238,5.3723 -3.2238,4.2978 -5.373,-17.1915 -2.1492,-22.5639 -2.1492,-21.4894 -7.5222,-20.4149 -2.1492,0 -4.2984,1.0744 -4.2984,0 0,0 6.4476,-5.3724 16.119,-12.8936 8.5968,-6.4469 16.119,-11.8192 16.119,-12.8937 0,0 -1.0746,-2.1489 -3.2238,-4.2978 l -2.1492,-4.2979 3.2238,1.0745 c 1.0746,1.0744 9.6714,4.2978 18.2683,8.5957 8.5968,4.2979 17.1936,6.4468 17.1936,6.4468 z m 44.0586,6.4468 c -5.373,2.149 -9.6714,1.0745 -12.8952,-2.1489 -9.6714,-9.6702 4.2984,-24.7128 15.0444,-16.117 6.4476,5.3723 5.373,15.0425 -2.1492,18.2659 z m -121.4299,54.7979 c -3.2238,3.2234 -10.746,3.2234 -13.9698,1.0745 -5.373,-3.2234 -6.4476,-12.8937 -2.1492,-17.1915 5.373,-4.2979 10.746,-4.2979 15.0444,-1.0745 5.373,4.2979 6.4476,11.8192 1.0746,17.1915 z m 103.1617,11.8191 c -4.2984,-3.2234 -5.373,-7.5212 -3.2238,-12.8936 3.2238,-7.5213 12.8952,-8.5957 18.2682,-2.1489 8.5968,9.6702 -4.2984,23.6383 -15.0444,15.0425 z m -47.2825,23.6383 c -6.4476,9.6703 -19.3428,5.3724 -19.3428,-5.3723 0,-2.1489 0,-4.2979 1.0746,-6.4468 2.1492,-5.3724 12.8952,-6.4468 17.1936,-1.0745 4.2985,3.2234 4.2985,8.5958 1.0746,12.8936 z m -18.2682,-83.8085 c -2.1492,3.2234 -3.2238,5.3724 -3.2238,10.7447 -1.0746,6.4468 0,8.5958 2.1492,11.8192 6.4476,11.8191 23.6413,12.8936 32.2381,3.2234 8.5968,-10.7447 5.373,-24.7128 -6.4476,-31.1596 -6.4477,-3.2234 -11.8207,-3.2234 -17.1937,-1.0745 -2.1492,1.0745 -6.4476,4.2979 -7.5222,6.4468 z" />
    </clipPath>
    <clipPath
       clipPathUnits="userSpaceOnUse"
       id="clipPath862">
      <g
         id="use864"
         inkscape:label="Clip">
        <path
           inkscape:connector-curvature="0"
           id="path940"
           style="fill:#1d4a90;fill-opacity:1;fill-rule:nonzero;stroke:none"
           d="M 712,172 H 3020.702 V 650 H 712 Z"
           clip-path="none" />
      </g>
    </clipPath>
    <clipPath
       clipPathUnits="userSpaceOnUse"
       id="clipPath871">
      <use
         x="0"
         y="0"
         xlink:href="#g867"
         id="use873"
         width="100%"
         height="100%" />
    </clipPath>
    <clipPath
       clipPathUnits="userSpaceOnUse"
       id="clipPath880">
      <use
         x="0"
         y="0"
         xlink:href="#g876"
         id="use882"
         width="100%"
         height="100%" />
    </clipPath>
  </defs>
  <sodipodi:namedview
     id="base"
     pagecolor="#ffffff"
     bordercolor="#666666"
     borderopacity="1.0"
     inkscape:pageopacity="0.0"
     inkscape:pageshadow="2"
     inkscape:zoom="1.979899"
     inkscape:cx="3891.4913"
     inkscape:cy="516.7177"
     inkscape:document-units="mm"
     inkscape:current-layer="layer1"
     showgrid="false"
     units="cm"
     inkscape:window-width="1200"
     inkscape:window-height="1867"
     inkscape:window-x="1912"
     inkscape:window-y="-8"
     inkscape:window-maximized="1" />
  <metadata
     id="metadata873">
    <rdf:RDF>
      <cc:Work
         rdf:about="">
        <dc:format>image/svg+xml</dc:format>
        <dc:type
           rdf:resource="http://purl.org/dc/dcmitype/StillImage" />
        <dc:title />
      </cc:Work>
    </rdf:RDF>
  </metadata>
  <g
     inkscape:label="Layer 1"
     inkscape:groupmode="layer"
     id="layer1"
     transform="translate(0,-69.480002)">
    <g
       id="g1431"
       transform="matrix(0.35210055,0,0,-0.35210055,1.7890648,297.25036)" />
    <g
       id="g1433"
       transform="matrix(0.35210055,0,0,-0.35210055,1.7890648,297.25036)"
       style="fill:#01378c;fill-opacity:1">
      <g
         id="g1435"
         clip-path="url(#clipPath1439)"
         style="fill:#01378c;fill-opacity:1">
        <path
           d="M 705,-5 H 3018 V 119 H 705 Z"
           style="fill:#01378c;fill-opacity:1;fill-rule:nonzero;stroke:none"
           id="path1441"
           inkscape:connector-curvature="0" />
      </g>
    </g>
    <g
       id="g1443"
       transform="matrix(0.35210055,0,0,-0.35210055,1.7890648,297.25036)">
      <g
         id="g1445"
         clip-path="url(#clipPath1449)">
        <path
           d="m -5,31.80205 h 614.8282 v 615.198 H -5 Z"
           style="fill:#01378c;fill-opacity:1;fill-rule:nonzero;stroke:none"
           id="path1451"
           inkscape:connector-curvature="0" />
      </g>
    </g>
    <g
       id="g869"
       clip-path="url(#clipPath871)"
       style="fill:#01378c;fill-opacity:1">
      <g
         inkscape:label="Clip"
         id="g867"
         style="fill:#01378c;fill-opacity:1">
        <g
           id="g878"
           clip-path="url(#clipPath880)"
           style="fill:#01378c;fill-opacity:1">
          <g
             inkscape:label="Clip"
             id="g876"
             style="fill:#01378c;fill-opacity:1">
            <path
               d="m 289.9927,231.39844 c -0.73822,-1.94159 -1.34221,-3.90568 -1.34221,-4.36471 0,-0.45903 -1.66163,-4.9086 -3.69266,-9.88797 -3.52227,-8.63565 -3.69681,-10.20676 -3.78458,-34.05421 -0.0505,-13.75048 -0.58463,-25.49367 -1.18672,-26.09594 l -1.09479,-1.0951 c -6.87061,4.2908 -9.03289,3.68938 -14.07684,-1.50424 -5.29277,-5.44975 -10.56974,-17.83362 -10.56974,-24.80496 v -4.62875 c 13.68136,13.68147 14.1743,13.91695 19.66499,13.03906 3.14186,-0.50245 6.08782,-1.52097 6.54664,-2.2633 1.02321,-1.65562 0.60635,-13.44796 -0.51498,-14.56929 l -0.81032,-0.81047 -11.66217,5.77005 c -1.69509,-1.69508 2.39903,-8.67452 7.36207,-13.78868 3.05905,-3.15207 5.54847,-6.43048 5.5321,-7.28538 -0.0164,-0.8549 -0.87156,-7.127959 -1.90057,-13.940225 -2.03032,-13.442565 -1.58512,-14.759034 4.65987,-13.777131 6.58724,1.03588 13.12962,3.022713 16.31789,4.955463 4.08968,2.479528 8.47679,10.933884 8.47679,16.336057 v 4.183416 c 26.53626,1.80148 31.77274,2.61191 37.37188,5.69477 3.47794,1.915 6.13472,4.43456 6.35147,6.0237 0.40643,2.97937 -18.62263,22.0717 -22.70267,23.76291 -6.57375,2.72477 -18.26828,10.4032 -18.26828,11.99466 v 1.79832 c -9.13433,3.18432 -9.4382,5.11556 -10.33176,41.93355 -0.55434,22.84263 -1.2477,31.26706 -2.91634,35.43748 l -2.18915,5.47104 h -3.89782 z m 19.98413,-99.27257 4.90522,-2.33914 c 4.51742,-1.80376 5.62854,-6.0041 6.79755,-11.83625 v -2.75244 h -16.15649 c -3.05725,15.53992 -2.84846,19.26698 -1.01165,19.26698 0.30815,0 2.76758,-1.05264 5.46537,-2.33915 z m 236.07412,87.75515 c -2.46329,-4.60248 -5.30932,-20.85907 -6.31703,-36.08024 -0.53343,-8.06197 -1.41298,-15.3745 -1.95381,-16.25011 l -0.98412,-1.59195 c -9.05638,4.31865 -10.2,4.37362 -13.65727,2.73279 -2.21366,-1.05074 -5.13081,-4.25746 -6.58851,-7.24327 -2.59639,-5.31848 -2.59322,-5.4271 0.43027,-14.81516 1.7193,-5.33858 2.65167,-10.69921 2.14112,-12.30855 -0.49787,-1.56819 -0.50843,-4.96497 -0.0239,-7.54826 l 0.88131,-4.69717 h 4.06746 c -2.98898,-4.79951 -4.23119,-8.22918 -4.68892,-10.71808 l -0.83166,-4.52498 c 4.48611,-1.72135 14.27979,2.28643 16.64309,5.13412 0.84539,1.01838 2.08021,1.85169 2.74462,1.85169 h 1.2077 c 0.0292,-9.06581 0.41936,-13.1237 0.88624,-14.866562 L 540.8561,95.7867 c 4.57203,0.664167 7.42193,3.580369 9.91128,7.62657 4.05655,6.59315 4.17767,7.27492 4.08542,23.05156 l -0.0947,16.25747 c 1.96014,0 4.67449,-2.14524 7.29658,-4.76733 4.76674,-4.76678 4.76709,-4.76843 3.82944,-14.28398 -0.55526,-5.63477 -0.37815,-10.51619 0.43379,-11.96727 l 1.37143,-2.45062 c 2.15345,4.07398 3.86607,9.15567 5.1949,13.92093 2.84321,10.19402 2.00767,12.68661 -6.16,18.37835 -2.87843,2.00584 -6.95892,5.90905 -9.06765,8.67371 -3.83437,5.02701 -3.83437,5.02701 -4.04669,33.511 -0.17147,23.0066 -0.64505,29.47638 -2.46365,33.64475 l -2.25098,5.16081 c -1.10031,0 -2.06084,-1.19774 -2.84427,-2.66163 z m -10.02606,-65.14008 c 1.17038,-0.91582 1.72001,-5.71653 1.72001,-15.02262 v -13.67668 l -10.32147,0.85423 c -0.34541,9.59908 -0.89223,16.01428 -1.43798,20.44898 -0.7197,5.84839 -0.52217,8.35355 0.71934,9.12075 1.9281,1.19164 6.72759,0.30351 9.3201,-1.72466 z m 458.32119,52.45833 c -2.81504,-1.52523 -6.42654,-4.88987 -8.02543,-7.47699 -1.59889,-2.58713 -3.46009,-4.70389 -4.13577,-4.70389 -0.67568,0 -2.25732,-1.98898 -3.51432,-4.41999 l -2.28583,-4.42002 c 10.94856,7.86856 20.15036,12.68604 21.79925,12.05335 2.10592,-0.80814 4.72092,-7.73942 4.72092,-12.51327 v -3.38439 c -4.79944,1.19584 -8.67854,1.938 -11.71646,2.42076 -7.49798,1.19155 -10.3014,-1.98151 -11.27954,-12.76502 -0.91969,-10.14267 1.1313,-12.75294 10.02008,-12.75294 h 6.09486 c 0,-5.98483 -4.60618,-11.00972 -7.56911,-11.00972 h -2.06436 c 0,-7.43954 3.70867,-9.24828 17.20253,-11.59774 22.588,-3.93296 49.1329,-17.16838 54.4834,-27.16575 l 1.3939,-2.60463 c -15.1787,-6.37214 -42.4517,-2.51034 -64.82272,6.24169 -7.6846,3.00658 -19.3173,8.46921 -19.3173,8.46921 v 0 c -13.11785,12.56274 -22.09783,26.43923 -28.11206,40.11792 -2.67631,6.08792 -4.86673,11.66688 -4.86673,12.39774 0,0.73085 -0.8468,2.03158 -1.88162,2.8905 l -1.88163,1.5617 c -3.87839,-4.67297 2.19535,-19.96283 11.08483,-33.38455 8.96589,-13.5364 17.4832,-21.63419 32.67387,-31.06414 5.72375,-3.55312 13.70939,-10.02117 17.74626,-14.373451 l 7.3395,-7.913214 c -4.3671,0 -11.90276,4.315803 -15.04033,7.672236 -3.84846,4.117359 -13.69953,6.891419 -16.42866,4.626569 -1.07742,-0.89441 -1.95908,-2.08856 -1.95908,-2.65361 v -1.02764 c 31.26297,-10.985043 39.00357,-14.599391 44.19357,-18.510453 9.9458,-7.494707 20.9074,-12.788187 24.0136,-11.596256 l 2.4682,0.947115 c -3.045,2.872718 -8.655,6.439567 -14.4312,9.779769 -5.7762,3.340096 -14.9861,10.224578 -20.4669,15.298699 l -9.96443,9.225706 c 0.79293,-0.001 4.42943,-1.29763 8.59233,-2.88195 20.7162,-7.883633 45.9868,-8.735646 52.9376,-1.78465 11.4697,11.4695 -22.2397,33.17579 -61.73873,39.75493 l -5.36073,0.89289 c 7.15926,4.3539 8.98276,6.90955 9.97816,10.60576 1.5102,5.60879 3.4094,7.08532 9.1131,7.08532 h 3.328 l 4.1284,2.75241 v 0 l 1.6036,2.96578 1.0967,2.53906 c 2.2668,9.03233 0.3302,12.20494 -5.5354,13.78449 l -5.422,1.45995 c 0,8.06314 -0.9359,13.55468 -2.0791,17.40546 -1.7236,5.80336 -2.8186,7.25905 -6.3984,8.50707 -2.3756,0.8281 -4.38155,1.46417 -4.45796,1.41351 -0.0764,-0.0507 -2.44182,-1.3401 -5.25686,-2.86533 z M 771.2189,199.39369 c -2.32949,-2.59181 -2.4059,-3.66948 -0.89257,-12.6396 0.90948,-5.3934 1.30066,-10.15929 0.86934,-10.59086 l -0.78484,-0.78466 c -5.28855,3.46523 -7.16771,6.51957 -7.89057,9.59383 l -1.22883,5.22925 -7.84339,0.90592 c 1.34749,-5.50164 2.10169,-8.54981 2.54568,-10.32313 l 0.80737,-3.22422 c -9.881,-4.09278 -11.09926,-5.84395 -12.09078,-13.08008 -0.76476,-5.57716 -0.35809,-6.85719 4.18788,-13.185 2.76927,-3.85448 5.7815,-7.25964 6.69379,-7.56696 l 1.6591,-0.55861 c 0.1683,-5.14619 0.32322,-8.34326 0.45244,-10.42481 l 0.23556,-3.78459 c 5.01286,0 8.97434,1.8155 12.03761,4.03451 12.66999,9.17824 17.47229,21.80633 11.41053,30.00534 -2.78829,3.77145 -5.44348,15.7421 -6.03289,27.20163 l -0.21267,4.12863 c 19.40707,0.84088 31.58658,-1.10099 34.58085,-3.58625 l 1.73973,-1.44368 c -1.98022,-5.20803 -4.92131,-9.95959 -7.81311,-13.91907 -2.89181,-3.95947 -6.66914,-9.5214 -8.39338,-12.35982 l -3.1358,-5.16081 c 5.04137,0 16.89061,12.88012 26.28184,25.69331 4.57449,6.24165 3.14249,10.4077 -4.9192,14.31042 -5.22236,2.52798 -9.45601,3.21281 -23.05695,3.72966 -15.51074,0.58938 -16.83604,0.43759 -19.20674,-2.20035 z m -11.32813,-45.1208 2.17704,-0.83536 c -0.0679,-2.43812 -0.92814,-4.25432 -1.95557,-5.60878 l -1.86789,-2.4626 c -3.4365,3.43626 -4.434,5.62816 -4.434,7.08796 v 2.6541 c 3.02525,0 4.88328,-0.3759 6.08042,-0.83532 z m 139.47161,44.91268 c -1.94677,-1.53129 -5.41883,-6.80033 -7.71593,-11.70896 -3.60481,-7.70319 -5.3375,-9.67538 -12.66013,-14.40814 l -8.48386,-5.48333 c -18.6064,20.35853 -29.74827,22.78193 -40.47889,14.7033 -3.26785,-2.45999 -5.96036,-5.16271 -5.98395,-6.00599 l -0.0422,-1.53333 c 9.13701,-3.48946 13.17631,-4.50256 14.87097,-4.50256 3.29883,0 15.40545,-10.24404 15.40545,-13.03525 0,-0.92124 -1.49396,-3.41372 -3.31996,-5.53879 -6.25682,-7.28168 -5.22728,-14.45506 2.07493,-14.45506 6.78604,0 10.88308,-5.2994 10.85702,-14.04357 -0.0116,-4.00821 -0.86616,-10.87882 -1.89887,-15.26782 -1.62037,-6.88561 -1.60382,-8.253975 0.11971,-9.977543 1.09855,-1.098659 2.25908,-1.997466 2.57878,-1.997466 2.06261,0 9.32503,12.978249 11.67178,20.857209 l 2.80519,9.41949 c 1.52952,0 2.71962,-1.19443 3.63121,-2.65431 l 1.65769,-2.65431 1.36114,-2.90941 c 11.78128,-10.81924 11.48149,-8.37068 14.77293,-4.73334 l 1.64243,3.31787 c 3.83719,11.62569 1.5327,15.77759 -7.95853,21.70439 -4.51991,2.82247 -8.24584,5.666 -8.28034,6.31915 -0.0718,1.37513 3.31502,5.65611 18.51661,23.40391 6.05543,7.06955 11.69678,14.02769 12.53654,15.46253 1.1313,1.93367 3.2682,2.66956 8.25711,2.84367 8.11627,0.28323 22.04607,2.70745 26.41951,4.59777 l 3.17384,1.37199 c -1.16053,1.87793 -4.31535,2.84571 -7.75995,3.36225 -3.44424,0.51649 -9.49016,2.03816 -13.4351,3.38146 -4.28612,1.45953 -11.92564,2.54418 -18.98385,2.69537 -10.01233,0.21439 -12.35098,-0.17119 -15.35123,-2.53118 z m -271.47551,-3.7348 c -1.51368,-0.34351 0.56696,-0.75595 -3.84895,-3.52512 l -5.82093,-2.14457 -3.12827,-1.82689 -5.09243,-3.99405 c 17.10856,6.27468 20.05952,6.26169 24.58612,2.70111 2.63512,-2.07286 3.62593,-4.11916 3.62593,-7.48799 0,-2.54959 -0.52427,-4.95979 -1.16545,-5.35601 l -1.16545,-0.7204 c -8.74125,9.12374 -14.61393,9.54982 -17.46137,5.06293 -2.5897,-4.08085 -4.19739,-16.72914 -2.50977,-19.74496 0.73025,-1.30488 3.41502,-3.04714 5.96599,-3.87169 l 4.63857,-1.49921 0.88201,-9.20673 c -7.08321,1.52608 -10.89821,2.86814 -13.04814,3.96719 -2.14993,1.09891 -4.82131,1.6479 -5.93677,1.21989 l -2.0281,-0.77811 c 0.82779,-8.59072 1.55241,-9.21789 9.12117,-12.00554 6.02303,-2.2183 10.94152,-2.98391 18.17824,-2.82976 9.61587,0.20478 10.44929,-0.0552 27.08499,-8.4483 17.16701,-8.66107 20.1479,-11.21546 17.21314,-14.75136 -2.19359,-2.64343 -14.32099,-6.02285 -21.61334,-6.02285 -6.2526,0 -26.92161,7.34224 -35.80159,12.71801 -5.10088,3.08778 -35.86778,38.38188 -41.39963,47.49129 -1.95345,3.21689 -4.00549,5.84891 -4.56005,5.84891 h -1.00807 c 2.08197,-5.47643 3.39954,-8.41809 4.27063,-10.07018 2.26119,-4.28784 21.5056,-26.37166 30.98309,-35.55486 10.03909,-9.7272 31.00527,-20.75615 46.98676,-24.716899 9.97079,-2.471147 12.32634,-2.619346 18.41521,-1.158657 8.45253,2.027716 12.12564,5.391746 12.12564,11.105636 0,7.66632 -13.08476,16.66967 -37.93707,26.10386 -5.42446,2.05912 -7.48672,3.72568 -9.28947,7.50587 -1.2746,2.67261 -2.31717,5.14788 -2.31717,5.50058 v 0.64146 h 13.7622 c 0,3.97859 1.16404,6.61357 2.58688,8.42231 2.21471,2.81558 2.36295,3.98061 1.03201,8.09881 -1.09644,3.3927 -2.49252,4.9431 -4.73716,5.26119 l -3.18229,0.45104 c 2.05134,9.33838 -0.61265,19.37381 -4.04035,22.14952 -2.82138,2.28485 -8.29338,2.84265 -14.36676,1.46453 z m -205.05562,-5.35109 c -7.64375,-3.21876 -9.29651,-3.41167 -22.23937,-2.59575 -13.09849,0.82564 -14.16958,0.69416 -16.94343,-2.07968 -1.62847,-1.62854 -2.76822,-3.94202 -2.53231,-5.14102 l 0.42886,-2.18007 c 15.74699,-0.22837 20.51655,-0.98493 21.51581,-1.98476 l 1.69607,-1.69733 c -1.50242,-1.50252 -5.66037,-2.20795 -10.20881,-2.53696 -8.55005,-0.61846 -12.15345,-3.36868 -10.39999,-7.93803 l 0.75103,-1.9568 h -4.11042 c -2.7816,-7.31605 -1.11686,-12.13694 2.33337,-14.17458 2.39992,-1.41735 2.36576,-3.63086 -0.0979,-6.36031 -1.07848,-1.19496 -2.16224,-3.98934 -2.40836,-6.20972 l -0.44717,-4.03701 c 14.87237,-4.2646 23.5006,-0.21633 22.33233,7.8772 l -0.56759,3.93169 7.82368,2.72751 c 0,4.72495 -1.85769,7.87674 -4.12838,10.05226 -2.2707,2.17553 -4.12873,4.69967 -4.12873,5.60918 v 1.65367 c 10.02571,1.88082 13.06152,4.81758 11.89501,7.85797 l -0.79892,2.08187 -7.65572,0.0875 c 7.93247,6.26696 20.32853,11.06941 24.63014,10.65019 l 4.27063,-0.41614 c -0.10986,-9.59907 -0.59118,-21.05607 -1.14081,-31.65289 -2.2721,-43.80666 -2.47456,-44.82532 -9.88522,-49.68086 -6.38992,-4.186724 -22.93407,0.8055 -37.48568,11.31137 l -3.09638,2.23549 c 0,-2.00927 2.1693,-5.1268 4.82026,-8.22423 6.81667,-7.963597 15.63362,-11.90149 26.8526,-11.99286 15.68819,-0.127742 20.09262,4.85279 22.77104,25.75003 2.42351,18.90667 4.99842,64.7553 3.81607,67.95167 -2.095,5.6647 -6.18324,5.91501 -17.66172,1.08137 z m -65.0298,-0.55269 c -0.93412,-1.4954 -2.02915,-7.77864 -2.43372,-13.96276 -0.60561,-9.25834 -0.10844,-13.67157 2.81505,-24.99273 5.53607,-21.43753 11.92776,-32.00122 18.77576,-31.03139 l 3.2101,0.4547 v 6.88106 c -8.14444,-0.85394 -12.61788,8.73041 -15.69523,26.76697 -1.67495,9.81744 -2.22317,16.65443 -1.482,18.48915 l 1.17637,2.91131 c 0,0 1.91965,7.08131 3.79107,10.24912 l 2.55026,4.31753 c -5.53009,3.49636 -10.90702,2.80008 -12.70766,-0.083 z m 349.27072,0.71857 c -1.30981,-1.57801 -1.37143,-3.62998 -0.2602,-8.63604 0.80173,-3.61143 1.81508,-9.97233 2.25238,-14.1354 1.67248,-15.92057 5.52094,-34.75457 7.23638,-35.41283 2.65096,-1.01728 5.85684,2.28729 5.85684,6.03705 0,1.82388 0.91581,5.5084 2.03549,8.18778 l 2.03549,4.87149 c 3.92874,-2.42819 2.9506,-18.05561 -0.28661,-27.88865 l -3.09637,-9.40574 c -3.91465,-0.0822 -10.55633,7.68988 -19.95495,21.60834 -4.9199,7.28606 -9.71973,13.49348 -10.66583,13.79418 l -1.72036,0.54706 c 0,-5.32443 2.01296,-9.89002 4.47273,-13.58077 5.61108,-8.41802 23.12421,-29.31124 24.56958,-29.31124 0.59364,0 2.14464,-1.80381 3.44671,-4.00863 1.33376,-2.25781 4.70618,-4.92698 7.72157,-6.111517 l 5.35333,-2.10285 c 2.26788,5.909477 -0.0838,10.306057 -4.92271,12.613407 -2.67245,1.27467 -4.85934,3.17313 -4.85934,4.21894 0,1.04577 2.0626,6.35464 4.58364,11.79758 l 4.584,9.89621 c 2.20697,-2.78656 4.78857,-7.70818 7.15996,-12.73453 2.37175,-5.02634 7.09976,-12.23919 10.50668,-16.0286 3.99106,-4.43882 6.19451,-8.164259 6.19451,-10.472173 v -3.582412 c 11.94571,0 16.66914,1.848 22.06544,7.085179 5.52234,5.359256 5.52234,5.359256 13.26151,3.109396 10.1162,-2.940951 19.37398,-1.978977 22.90344,2.37989 2.09781,2.59072 2.49639,4.88018 2.05486,11.81026 -0.45809,7.19662 -1.19574,9.27345 -4.52907,12.75266 -6.04663,6.31144 -13.81467,9.35274 -26.16741,10.24493 l -11.00983,0.79504 c 4.2664,-1.99081 6.76455,-2.61245 8.30429,-2.66558 3.37664,-0.11668 19.9979,-12.3782 23.00906,-16.97434 2.05169,-3.13116 2.90659,-6.56798 2.56259,-10.3026 l -0.15879,-1.72026 c -19.60743,0 -23.05062,1.1589 -24.67345,5.8149 l -1.43868,4.12673 c -3.42559,-1.31443 -5.84311,-2.05331 -7.58249,-2.48985 l -3.16257,-0.79381 c -1.4253,2.30598 -3.35094,2.9755 -5.19841,2.9755 h -3.35939 c 0,1.63248 -3.71572,6.01131 -8.25711,10.78389 -4.54139,4.77269 -8.25746,9.90321 -8.25746,11.40108 0,1.49802 -0.94469,4.55073 -2.09958,6.78389 -2.28583,4.41999 -6.12443,5.27309 -9.32503,2.07218 l -1.98831,-1.98796 c -3.91325,8.6784 -6.69836,11.93484 -8.98596,13.11775 l -4.00479,2.07095 c -1.6429,-1.64265 -6.62548,-14.40066 -6.62548,-16.22468 v -2.03145 c -1.82212,1.12616 -2.74497,5.03335 -3.22629,9.40919 -0.48133,4.37569 -1.20207,10.43305 -1.60206,13.46073 l -0.72674,5.50484 2.60942,-5.50484 c 0.1764,20.3256 -0.25492,22.68675 -2.36154,24.59324 l -2.55519,2.31231 z m 52.94184,-72.59169 10.29577,-7.15768 c -8.549,-8.92325 -11.20137,-8.71118 -16.35683,-2.83941 -4.7611,5.42281 -4.54456,4.89836 -4.9537,11.99396 l -0.29753,5.1608 c 0.78765,0 5.64981,-3.22101 11.31229,-7.15767 z m -270.43646,64.00315 c -3.44636,-1.23095 -5.50474,-4.83213 -5.50474,-9.62918 v -4.55372 c -1.80276,0 -3.39707,1.18356 -4.70618,2.63005 -4.54526,5.02254 -15.93713,1.479 -15.93713,-4.95739 v -1.80128 c 2.39957,0.53329 5.26637,-2.28436 7.9191,-5.9174 l 4.82272,-6.60559 c -16.08536,1.15176 -18.749,0.81445 -20.32817,-0.76504 l -2.07247,-2.07215 c 1.21193,-1.96123 3.05271,-2.53058 4.87237,-2.53058 4.58048,0 16.96667,-5.04218 22.24149,-9.05398 2.40942,-1.83254 4.98081,-3.33193 5.71388,-3.33193 h 1.33376 l 2.87842,-8.25729 c -3.78226,-1.4197 -7.51417,-0.54223 -12.88336,2.86293 l -6.55822,4.15905 -1.24327,-1.24327 c 10.27571,-13.09398 14.62098,-18.88396 16.28606,-21.31465 1.66473,-2.43051 4.24493,-5.85399 5.73361,-7.60755 1.48868,-1.753571 3.43227,-6.212924 4.31886,-9.909417 0.88694,-3.696527 2.40696,-7.380203 3.3777,-8.185985 l 1.76543,-1.465126 c 6.31598,5.527838 8.61344,12.547068 8.61344,20.267608 0,4.83051 -0.76194,6.75928 -3.77135,9.5482 l -3.771,3.49502 c 9.06026,6.59991 8.48457,9.62604 1.51016,14.63477 -5.18221,3.72157 -6.16669,5.22687 -6.98426,10.68108 -0.52393,3.49199 -0.5359,6.75677 -0.0268,7.25496 l 0.92567,0.9061 c 6.33006,-7.46594 10.34824,-13.50408 13.01364,-18.2348 2.66469,-4.73075 5.08644,-8.60136 5.38115,-8.60136 h 0.53554 c -3.81219,10.02698 -12.37985,24.52067 -17.63847,31.05024 -3.04286,3.77846 -3.20165,4.83163 -2.42316,16.08508 l 0.83272,12.04184 c -1.93515,0 -3.32207,0.26059 -4.33013,0.57906 -1.00807,0.31851 -2.76153,0.24728 -3.89705,-0.1583 z m -77.06038,-33.1058 -0.007,-5.84892 c 3.16574,0 5.9924,1.70417 8.3233,3.78695 l 4.23824,3.78691 -1.73656,4.52583 -10.80949,-0.40189 z m 184.93448,-22.04047 c -0.84399,-0.55611 -1.94184,-2.31714 -2.43935,-3.91325 l -0.9049,-2.90215 c 5.16954,-4.29035 10.87462,-2.34274 11.8686,1.61843 0.46126,1.83779 0.43414,3.99581 -0.0602,4.79582 -1.02743,1.6623 -6.17901,1.90645 -8.46414,0.40115 z m 365.9962,-9.62798 c -2.76223,-1.79019 -3.59917,-7.92216 -1.33763,-9.79907 l 2.045,-1.69712 c 5.02306,3.10282 5.71635,4.73308 5.42904,7.71586 l -0.39647,4.11736 c -3.19989,0.54815 -4.85371,0.23739 -5.73994,-0.33703 z m -350.77349,-3.20081 -0.92461,-1.49621 c 1.84078,-1.79473 5.72198,-3.62727 9.81304,-5.23028 4.0907,-1.60315 10.41549,-5.59171 14.05445,-8.863639 3.63931,-3.271965 11.61227,-8.547945 17.71805,-11.724526 10.49119,-5.458192 16.42514,-6.652588 17.45609,-3.513611 l 0.45738,1.392874 c -12.27423,5.707163 -21.10174,10.768467 -27.53532,14.92931 -24.83999,16.064372 -28.90253,17.963012 -31.03908,14.506082 z m 37.16316,-20.743508 1.30735,-1.156017 c -2.9337,0 -12.93653,6.664032 -12.93653,7.731002 v 0.750753 c 7.99938,-4.781671 10.91019,-6.690056 11.62918,-7.325738 z"
               id="path1457"
               inkscape:connector-curvature="0"
               style="clip-rule:evenodd;fill:#01378c;fill-opacity:1;stroke-width:0.35210055"
               sodipodi:nodetypes="cscccccscccccccccccsccccscccccccccccscccccccccccccccscccccccccccccscccccscccccscscccscccscsccccccccsccccccccsccscccccccccsccccccccccsccccccccccccccccccccccccccccccccscccccccccsscscccscccccccccccccccccccccccccsccccccccccccccsccsccccssccscccccccccccccccscccsccccccssccccccsccccccccccccccccccccccccccsccccccccsccccsccccsccccccccccccccccsccscccccscccccccccccccccsccscccccscsccccccccccscccccccscccccccccccccccccccccccccaccccccccccccscc" />
          </g>
        </g>
      </g>
    </g>
    <path
       style="fill:#000000;fill-opacity:1;stroke:#01378c;stroke-width:1.42857146;stroke-opacity:1"
       d="m 1094.2878,603.54018 c -3.7737,-11.62627 -10.6923,-30.78153 -15.3747,-42.56724 -13.8501,-34.86087 -13.8487,-34.84894 -15.3625,-125 -1.427,-84.98503 -2.5784,-103.24152 -6.7763,-107.43942 -2.5663,-2.56624 -2.9054,-2.5001 -12.3068,2.40022 -17.327,9.03144 -27.4464,6.32473 -43.7549,-11.70346 -21.23648,-23.47581 -38.56242,-65.83448 -38.56242,-94.27781 v -12.08269 l 18.92857,18.08656 c 10.41071,9.9476 22.69825,20.61008 27.30565,23.69443 7.4917,5.01518 9.3096,5.60788 17.1999,5.60788 14.1006,0 32.6693,-5.3885 35.2619,-10.23274 1.777,-3.32033 1.7432,-41.25374 -0.044,-48.89684 -2.6044,-11.14085 -3.0778,-11.12417 -27.8515,0.98127 l -22.2295,10.86218 v -4.25481 c 0,-9.07191 12.064,-27.87496 32.0078,-49.88763 6.0508,-6.67857 12.587,-14.79212 14.5247,-18.03012 l 3.5231,-5.88726 -5.7421,-40.884558 c -8.4853,-60.416578 -8.0239,-64.484663 7.2678,-64.082331 14.8399,0.390444 44.6375,7.891833 60.758,15.295525 11.3908,5.231456 18.8162,12.108746 26.0244,24.1034 9.8383,16.371201 14.4934,32.033474 14.4934,48.763674 v 8.88835 l 17.5,0.9993 c 26.7494,1.52746 74.6016,6.20213 88.5469,8.65012 6.8615,1.20448 16.8258,3.82632 22.1429,5.82631 17.9772,6.76204 36.1549,20.97805 36.0499,28.19302 -0.1292,8.8744 -41.9195,54.65249 -73.5254,80.54147 -3.9285,3.21797 -14.4737,9.56939 -23.4336,14.11426 -18.0606,9.16111 -42.4868,24.76168 -51.4529,32.86203 -4.1408,3.74093 -5.8278,6.4073 -5.8278,9.21115 0,3.12765 -0.963,4.3224 -4.6428,5.76002 -10.0283,3.91778 -17.7577,9.95668 -21.4416,16.75203 -7.7853,14.36111 -10.2587,38.3791 -12.4674,121.06647 -3.1212,116.84874 -5.1146,137.94127 -15.3914,162.85714 l -4.1245,10 -7.181,0.42439 -7.181,0.42438 z m 80.4409,-367.34681 c 23.7261,-11.18197 28.7924,-14.8196 33.1356,-23.79159 4.293,-8.86818 8.5172,-25.63653 8.5471,-33.92884 l 0.024,-6.78572 h -31.213 -31.2131 l -3.2247,18.21429 c -1.7736,10.01786 -3.9217,25.08243 -4.7736,33.47681 -1.7621,17.36238 -0.5798,22.64883 5.0366,22.52045 1.7847,-0.0409 12.441,-4.40823 23.6806,-9.7054 z"
       id="path918"
       inkscape:connector-curvature="0"
       transform="matrix(0.26458333,0,0,0.26458333,0,69.480002)" />
    <path
       style="opacity:1;vector-effect:none;fill:#000000;fill-opacity:1;stroke-width:1.34428442;stroke-linecap:butt;stroke-linejoin:miter;stroke-miterlimit:4;stroke-dasharray:none;stroke-dashoffset:0;stroke-opacity:1"
       d="m 1101.4877,621.96379 c -0.2513,-0.69448 -3.8372,-11.2632 -7.9687,-23.48605 -4.1315,-12.22284 -10.4401,-29.72374 -14.019,-38.89087 -13.3191,-34.11581 -12.7937,-28.78455 -15.8785,-161.11933 -1.7102,-73.36362 -2.6672,-77.02728 -18.0876,-69.24309 -7.7769,3.9258 -16.4662,6.20957 -20.6151,5.41822 -17.8675,-3.40801 -42.16604,-35.54203 -54.13229,-71.58826 -5.33273,-16.06393 -7.16931,-25.64615 -7.16931,-37.40538 V 215.885 l 13.38452,12.56654 c 18.76144,17.61485 28.82948,26.08617 35.18498,29.60479 5.0222,2.78054 6.2234,3.01945 14.565,2.897 14.9694,-0.21975 32.1456,-5.44459 34.9456,-10.63011 0.9156,-1.69559 1.2721,-8.2512 1.255,-23.07654 -0.034,-29.54031 -1.9326,-36.41846 -9.6526,-34.97019 -1.8328,0.34383 -11.8515,4.6879 -22.2637,9.65348 l -18.9315,9.02833 v -3.4182 c 0,-7.49923 12.2243,-26.21263 31.338,-47.97364 5.124,-5.83363 11.3737,-13.67633 13.8882,-17.42822 l 4.5718,-6.82162 -4.192,-30.04895 c -7.8948,-56.591751 -8.605,-67.649512 -4.6273,-72.044906 6.4014,-7.073469 63.1317,6.478274 79.7089,19.040889 7.2382,5.485285 14.0165,14.401378 19.7516,25.981034 6.3994,12.920808 9.0439,23.196183 9.7765,37.987513 l 0.5805,11.71905 19.3037,1.23408 c 42.0004,2.68507 82.5331,7.18169 97.0855,10.77047 16.6832,4.11425 33.7595,13.31281 42.6803,22.99068 5.5428,6.01323 5.5263,8.44192 -0.1143,16.83382 -12.1708,18.10764 -58.1016,64.59334 -73.3054,74.19103 -2.1373,1.34927 -11.778,6.83264 -21.4236,12.18527 -33.0488,18.33965 -54.3828,34.06355 -54.4236,40.11195 -0.023,3.41366 -0.8788,4.24789 -8.0657,7.86262 -21.364,10.74518 -25.0573,21.19001 -28.7494,81.30591 -0.3071,5.00025 -1.2355,32.50166 -2.0633,61.11423 -3.3955,117.37789 -4.6062,128.4984 -17.8437,163.89725 -0.9853,2.63495 -1.3732,2.77792 -7.5376,2.77792 -4.282,0 -6.6548,-0.43073 -6.9559,-1.26269 z m 62.017,-379.666 c 16.9881,-7.2394 33.766,-16.28478 38.6302,-20.82643 2.8156,-2.62886 5.7452,-6.75948 7.3838,-10.41086 4.1219,-9.18485 7.6468,-24.36697 7.6468,-32.93574 v -7.44662 h -31.8515 c -24.5649,0 -31.9557,0.28886 -32.3069,1.26269 -2.2003,6.10094 -8.5726,52.44101 -8.5726,62.34046 0,13.53539 3.0806,14.8304 19.0702,8.0165 z"
       id="path924"
       inkscape:connector-curvature="0"
       transform="matrix(0.26458333,0,0,0.26458333,0,69.480002)" />
    <path
       style="opacity:1;vector-effect:none;fill:#000000;fill-opacity:1;stroke-width:1.34428442;stroke-linecap:butt;stroke-linejoin:miter;stroke-miterlimit:4;stroke-dasharray:none;stroke-dashoffset:0;stroke-opacity:1"
       d="m 1101.4917,621.96379 c -0.2492,-0.69448 -3.2331,-9.44493 -6.6311,-19.44544 -3.3979,-10.00051 -10.042,-28.41054 -14.7647,-40.91118 -4.7227,-12.50063 -9.428,-26.59226 -10.4562,-31.31473 -2.7227,-12.50505 -3.8386,-31.89555 -4.9704,-86.36804 -1.8276,-87.9631 -2.6991,-105.10577 -5.7282,-112.67613 -2.2897,-5.72243 -4.7178,-5.99356 -14.2424,-1.59026 -16.5322,7.64293 -22.5826,7.06461 -35.4689,-3.39028 -10.11422,-8.20582 -24.74899,-29.55079 -32.4702,-47.35813 -9.16089,-21.12767 -13.40357,-38.6733 -12.9293,-53.46914 l 0.29198,-9.10879 15.15228,14.12302 c 17.45492,16.26926 28.32814,25.2947 33.89394,28.13418 10.9529,5.58777 45.4477,-0.78251 48.5731,-8.97016 0.6173,-1.61743 0.8912,-11.8545 0.6931,-25.90756 -0.2936,-20.81747 -0.5377,-23.65369 -2.3479,-27.27412 -1.8013,-3.60245 -2.4037,-4.03012 -5.5559,-3.94383 -2.2154,0.0606 -10.702,3.5099 -22.7284,9.23764 l -19.1929,9.14086 -0.3283,-3.08174 c -0.7443,-6.98679 9.7405,-23.32054 30.8534,-48.06493 6.3252,-7.41316 13.1101,-15.90286 15.0775,-18.86598 l 3.5771,-5.3875 -4.6406,-33.66194 c -7.5779,-54.967859 -8.1332,-64.0921 -4.1673,-68.474364 3.3712,-3.725103 17.6093,-2.650184 40.1724,3.032845 35.7413,9.00229 48.4665,18.251939 60.5323,43.999768 5.4705,11.673775 7.9474,21.996891 8.641,36.014581 l 0.5874,11.86929 4.6496,0.002 c 13.2765,0.005 74.5363,5.51685 96.5127,8.68388 24.8761,3.58492 45.9507,13.05286 57.8934,26.00915 5.4924,5.95864 5.5449,8.66319 0.3194,16.45539 -10.1759,15.17414 -50.9917,57.44101 -67.8112,70.22203 -4.1324,3.14019 -15.2613,10.00529 -24.731,15.25578 -21.6811,12.0211 -35.0409,20.41993 -45.6685,28.71001 -8.0784,6.30161 -10.4027,9.17813 -11.6919,14.46919 -0.4576,1.87826 -2.5093,3.49294 -8.0068,6.30127 -24.614,12.57384 -26.9986,23.87182 -30.5446,144.71654 -3.1424,107.09216 -5.0804,127.37137 -14.5822,152.58619 -2.2623,6.00346 -4.1133,11.06123 -4.1133,11.23949 0,0.17826 -2.969,0.32411 -6.5977,0.32411 -4.3631,0 -6.7511,-0.42766 -7.0507,-1.26269 z m 56.7945,-377.64059 c 3.2155,-1.16401 13.2012,-5.72836 22.1906,-10.143 18.3935,-9.03296 25.0174,-14.24418 28.7147,-22.59088 3.8415,-8.67204 7.0404,-21.84145 7.668,-31.56727 l 0.6028,-9.34391 -31.2106,0.0154 c -17.1658,0.008 -31.7305,0.34944 -32.3659,0.75762 -1.0139,0.65133 -3.4789,14.14011 -7.5195,41.14825 -0.665,4.44467 -1.258,13.12041 -1.3179,19.27941 -0.1505,15.48237 1.2385,16.78812 13.2378,12.44432 z"
       id="path926"
       inkscape:connector-curvature="0"
       transform="matrix(0.26458333,0,0,0.26458333,0,69.480002)" />
    <path
       style="opacity:1;vector-effect:none;fill:#000000;fill-opacity:1;stroke-width:1.34428442;stroke-linecap:butt;stroke-linejoin:miter;stroke-miterlimit:4;stroke-dasharray:none;stroke-dashoffset:0;stroke-opacity:1"
       d="m 1101.2631,621.88425 c -0.2636,-0.72004 -3.165,-9.26411 -6.4475,-18.98683 -3.2825,-9.72272 -9.3723,-26.76904 -13.5328,-37.88072 -4.1606,-11.11168 -8.5553,-23.38503 -9.766,-27.27412 -4.6724,-15.00913 -5.3989,-27.47629 -8.1463,-139.7963 -1.1424,-46.70014 -2.2082,-61.40311 -4.836,-66.71029 -2.8027,-5.66063 -3.9612,-5.81625 -12.9806,-1.74386 -11.526,5.20411 -17.1892,6.35421 -23.1168,4.69459 -25.72454,-7.20243 -60.06649,-70.9404 -58.842,-109.20954 l 0.2893,-9.04149 13.13199,12.29695 c 17.17144,16.07955 31.10591,27.65665 36.33511,30.18807 10.8379,5.24651 43.8956,-0.37385 48.0694,-8.17259 0.7793,-1.45614 1.0225,-9.75637 0.7768,-26.5132 -0.3117,-21.25117 -0.595,-24.83198 -2.1996,-27.79781 -1.7298,-3.19736 -2.1019,-3.37506 -6.1186,-2.92232 -2.4358,0.27455 -11.855,4.05815 -21.8821,8.78986 -9.683,4.5693 -18.1736,8.54674 -18.8681,8.83878 -1.891,0.79517 -1.5766,-3.88804 0.6554,-9.76221 2.8909,-7.60818 11.5224,-19.91528 26.8691,-38.31106 18.8581,-22.60476 21.152,-26.16617 20.3916,-31.65939 -12.0727,-87.213297 -12.5268,-92.975121 -7.7062,-97.795731 3.5577,-3.557659 17.3073,-2.481747 39.4048,3.083433 35.5216,8.946016 47.7954,17.57238 60.0272,42.18881 6.2404,12.558651 8.794,22.519148 9.5146,37.111538 l 0.5987,12.12183 24.1743,1.69559 c 27.7625,1.94727 61.9339,5.2841 77.3223,7.5505 24.9051,3.66802 44.3075,12.43556 57.5182,25.99137 5.618,5.76479 5.7372,8.45802 0.7092,16.03297 -9.2264,13.90021 -43.1204,49.82496 -62.3068,66.03995 -8.9007,7.52231 -14.5498,11.1344 -37.5145,23.98729 -29.5156,16.5193 -47.2008,29.85437 -49.7323,37.49933 -1.1793,3.56129 -2.2777,4.55197 -9.2598,8.35131 -13.1247,7.14195 -17.5589,12.83948 -21.559,27.70172 -4.4981,16.71219 -5.9052,37.4234 -8.6683,127.59168 -2.9668,96.81736 -4.8354,115.67867 -13.9603,140.91628 l -4.2002,11.61675 -6.8324,0.29901 c -4.8966,0.21429 -6.9682,-0.0719 -7.3118,-1.01015 z m 60.486,-379.21981 c 15.3068,-6.06042 34.6373,-16.45178 40.0318,-21.51955 8.1212,-7.62942 13.7013,-23.12841 14.8508,-41.24885 l 0.5928,-9.34391 h -27.2816 c -15.0048,0 -29.3654,0.28562 -31.9123,0.63472 -4.6248,0.63389 -4.6322,0.64142 -5.745,5.80838 -3.1131,14.45568 -6.2377,38.09253 -6.7652,51.17674 -0.5242,13.00488 -0.3942,14.88623 1.1345,16.41498 2.4709,2.47088 4.7219,2.18417 15.0942,-1.92251 z"
       id="path936"
       inkscape:connector-curvature="0"
       transform="matrix(0.26458333,0,0,0.26458333,0,69.480002)" />
    <path
       style="opacity:1;vector-effect:none;fill:#01378c;fill-opacity:1;stroke-width:1.34428442;stroke-linecap:butt;stroke-linejoin:miter;stroke-miterlimit:4;stroke-dasharray:none;stroke-dashoffset:0;stroke-opacity:1"
       d="m 1101.2667,621.83778 c -0.2421,-0.69448 -3.825,-11.03592 -7.9621,-22.98097 -4.1371,-11.94506 -10.6754,-30.1278 -14.5295,-40.4061 -7.4848,-19.96029 -9.8216,-28.3142 -11.3207,-40.47023 -1.0135,-8.21848 -2.401,-47.54457 -4.0965,-116.10342 -1.4533,-58.76164 -2.6764,-71.25842 -7.254,-74.1153 -2.0284,-1.26594 -6.0462,-0.2559 -15.953,4.01045 -13.6349,5.87189 -22.4614,3.47039 -35.3553,-9.61939 -22.74495,-23.09046 -42.10276,-68.78951 -41.2005,-97.26427 l 0.2893,-9.13012 12.62691,11.83615 c 18.7324,17.55929 31.15309,27.76044 37.26269,30.60387 5.0311,2.34151 6.2156,2.48964 15.6574,1.95798 16.3454,-0.9204 30.0871,-5.49554 32.0933,-10.68513 0.6312,-1.63277 0.8732,-11.58537 0.6295,-25.88616 -0.5599,-32.84384 -1.2238,-33.98051 -16.2792,-27.87274 -3.9816,1.61532 -13.0607,5.70643 -20.1757,9.09138 -7.115,3.38495 -13.1971,6.15445 -13.5159,6.15445 -0.3187,0 -0.35,-2.03566 -0.07,-4.52368 0.9522,-8.44811 9.4247,-20.94402 36.3239,-53.57364 5.391,-6.53956 10.5128,-13.38827 11.3817,-15.21935 1.4849,-3.12915 1.3038,-5.3518 -3.0139,-36.97966 -9.216,-67.51014 -9.0521,-69.510822 5.6944,-69.510822 14.7722,0 47.6972,8.576568 62.6524,16.320224 5.1844,2.684402 9.6935,6.056809 13.7113,10.254757 13.5474,14.154644 23.5158,38.573175 23.5158,57.603901 0,3.56527 0.2707,7.83588 0.6016,9.49024 l 0.6016,3.00794 12.7829,0.67493 c 30.8508,1.62888 81.0325,6.7369 96.3732,9.80987 19.5617,3.9185 36.3081,11.92676 47.3229,22.63018 6.8318,6.63864 7.579,8.74019 4.9899,14.03535 -6.2219,12.72514 -49.9935,59.06399 -70.9478,75.10909 -2.946,2.25575 -14.6749,9.41535 -26.0644,15.91021 -36.0745,20.5715 -52.9258,33.07775 -55.1403,40.92246 -0.8356,2.95995 -2.1245,4.14913 -7.946,7.33127 -9.6585,5.27942 -13.4267,8.35608 -16.8582,13.76433 -8.8614,13.96577 -10.7828,31.81512 -13.9863,129.9247 -2.8073,85.97413 -4.2358,109.90461 -7.6861,128.7578 -1.6109,8.80205 -6.1897,24.13415 -9.5455,31.96289 l -1.9029,4.43925 h -6.6336 c -4.3987,0 -6.7819,-0.42541 -7.0737,-1.26269 z m 65.8678,-381.57056 c 16.2303,-7.05376 30.0807,-14.84217 35.1418,-19.76093 7.5446,-7.33256 13.2472,-23.66553 14.3829,-41.19454 l 0.5805,-8.96035 -31.0476,0.35291 c -28.2801,0.32144 -31.1639,0.51206 -32.3528,2.13859 -2.4239,3.31596 -8.6325,47.07686 -8.6325,60.84504 0,14.6664 1.9639,15.25566 21.9277,6.57928 z"
       id="path938"
       inkscape:connector-curvature="0"
       transform="matrix(0.26458333,0,0,0.26458333,0,69.480002)" />
  </g>
</svg>
